<svg xmlns="http://www.w3.org/2000/svg" xmlns:xlink="http://www.w3.org/1999/xlink" contentStyleType="text/css" data-diagram-type="DESCRIPTION" height="859px" preserveAspectRatio="none" style="width:525px;height:859px;background:#FFFFFF;" version="1.1" viewBox="0 0 525 859" width="525px" zoomAndPan="magnify"><title>&lt;size:24&gt;&lt;b&gt;Architecture 3-Tiers&lt;/b&gt;&lt;/size&gt;
Belle &#206;le Parfum&#233;e</title><defs><filter height="300%" id="f1o41j5az6mumj" width="300%" x="-1" y="-1"><feGaussianBlur result="blurOut" stdDeviation="2"/><feColorMatrix in="blurOut" result="blurOut2" type="matrix" values="0 0 0 0 0 0 0 0 0 0 0 0 0 0 0 0 0 0 .4 0"/><feOffset dx="4" dy="4" in="blurOut2" result="blurOut3"/><feBlend in="SourceGraphic" in2="blurOut3" mode="normal"/></filter></defs><g><g class="title" data-source-line="32"><text fill="#000000" font-family="Arial" font-size="24" font-weight="bold" lengthAdjust="spacing" textLength="226.7461" x="142.127" y="32.5117">Architecture 3-Tiers</text><text fill="#000000" font-family="Arial" font-size="14" font-weight="bold" lengthAdjust="spacing" textLength="120.6133" x="195.1934" y="50.7295">Belle &#206;le Parfum&#233;e</text></g><!--cluster L1--><g class="cluster" data-entity="L1" data-source-line="35" data-uid="ent0002" id="cluster_L1"><rect fill="#E8F5E9" filter="url(#f1o41j5az6mumj)" height="113.8" rx="5" ry="5" style="stroke:#181818;stroke-width:2;" width="158" x="7" y="71.6963"/><text fill="#000000" font-family="Arial" font-size="14" font-weight="bold" lengthAdjust="spacing" textLength="115.1104" x="28.4448" y="86.8281">COUCHE CLIENT</text></g><!--cluster L2--><g class="cluster" data-entity="L2" data-source-line="40" data-uid="ent0004" id="cluster_L2"><rect fill="#E3F2FD" filter="url(#f1o41j5az6mumj)" height="127.59" rx="5" ry="5" style="stroke:#181818;stroke-width:2;" width="190" x="12" y="231.4963"/><text fill="#000000" font-family="Arial" font-size="14" font-weight="bold" lengthAdjust="spacing" textLength="174.2344" x="19.8828" y="246.6281">COUCHE PR&#201;SENTATION</text></g><!--cluster L3--><g class="cluster" data-entity="L3" data-source-line="45" data-uid="ent0006" id="cluster_L3"><rect fill="#FFF3E0" filter="url(#f1o41j5az6mumj)" height="127.6" rx="5" ry="5" style="stroke:#181818;stroke-width:2;" width="326" x="14" y="418.0863"/><text fill="#000000" font-family="Arial" font-size="14" font-weight="bold" lengthAdjust="spacing" textLength="117.4482" x="118.2759" y="433.2181">COUCHE M&#201;TIER</text></g><!--cluster L4--><g class="cluster" data-entity="L4" data-source-line="51" data-uid="ent0009" id="cluster_L4"><rect fill="#FCE4EC" filter="url(#f1o41j5az6mumj)" height="113.95" rx="5" ry="5" style="stroke:#181818;stroke-width:2;" width="149" x="12" y="591.6863"/><text fill="#000000" font-family="Arial" font-size="14" font-weight="bold" lengthAdjust="spacing" textLength="133.793" x="19.6035" y="606.8181">COUCHE DONN&#201;ES</text></g><!--cluster L5--><g class="cluster" data-entity="L5" data-source-line="56" data-uid="ent0011" id="cluster_L5"><rect fill="#F3E5F5" filter="url(#f1o41j5az6mumj)" height="113.8" rx="5" ry="5" style="stroke:#181818;stroke-width:2;" width="147" x="366" y="424.9863"/><text fill="#000000" font-family="Arial" font-size="14" font-weight="bold" lengthAdjust="spacing" textLength="131.4756" x="373.7622" y="440.1181">SERVICE EXTERNE</text></g><!--entity Browser--><g class="entity" data-entity="Browser" data-source-line="36" data-uid="ent0003" id="entity_Browser"><rect fill="#C8E6C9" filter="url(#f1o41j5az6mumj)" height="43.7988" rx="5" ry="5" style="stroke:#181818;stroke-width:2;" width="126.0391" x="22.98" y="125.6963"/><rect fill="#C8E6C9" height="10" style="stroke:#181818;stroke-width:2;" width="15" x="129.0191" y="130.6963"/><rect fill="#C8E6C9" height="2" style="stroke:#181818;stroke-width:2;" width="4" x="127.0191" y="132.6963"/><rect fill="#C8E6C9" height="2" style="stroke:#181818;stroke-width:2;" width="4" x="127.0191" y="136.6963"/><text fill="#000000" font-family="Arial" font-size="12" lengthAdjust="spacing" textLength="86.0391" x="37.98" y="156.9521">Navigateur Web</text></g><!--entity React--><g class="entity" data-entity="React" data-source-line="41" data-uid="ent0005" id="entity_React"><rect fill="#BBDEFB" filter="url(#f1o41j5az6mumj)" height="57.5977" rx="5" ry="5" style="stroke:#181818;stroke-width:2;" width="107.6934" x="32.15" y="285.4963"/><rect fill="#BBDEFB" height="10" style="stroke:#181818;stroke-width:2;" width="15" x="119.8434" y="290.4963"/><rect fill="#BBDEFB" height="2" style="stroke:#181818;stroke-width:2;" width="4" x="117.8434" y="292.4963"/><rect fill="#BBDEFB" height="2" style="stroke:#181818;stroke-width:2;" width="4" x="117.8434" y="296.4963"/><text fill="#000000" font-family="Arial" font-size="12" lengthAdjust="spacing" textLength="48.0293" x="47.15" y="316.7521">React 18</text><text fill="#000000" font-family="Arial" font-size="12" lengthAdjust="spacing" textLength="67.6934" x="47.15" y="330.551">+ TypeScript</text></g><!--entity Spring--><g class="entity" data-entity="Spring" data-source-line="46" data-uid="ent0007" id="entity_Spring"><rect fill="#FFE0B2" filter="url(#f1o41j5az6mumj)" height="57.5977" rx="5" ry="5" style="stroke:#181818;stroke-width:2;" width="112.7148" x="29.64" y="472.0863"/><rect fill="#FFE0B2" height="10" style="stroke:#181818;stroke-width:2;" width="15" x="122.3548" y="477.0863"/><rect fill="#FFE0B2" height="2" style="stroke:#181818;stroke-width:2;" width="4" x="120.3548" y="479.0863"/><rect fill="#FFE0B2" height="2" style="stroke:#181818;stroke-width:2;" width="4" x="120.3548" y="483.0863"/><text fill="#000000" font-family="Arial" font-size="12" lengthAdjust="spacing" textLength="72.7148" x="44.64" y="503.3421">Spring Boot 3</text><text fill="#000000" font-family="Arial" font-size="12" lengthAdjust="spacing" textLength="42.0293" x="44.64" y="517.141">Java 17</text></g><!--entity Security--><g class="entity" data-entity="Security" data-source-line="47" data-uid="ent0008" id="entity_Security"><rect fill="#FFCC80" filter="url(#f1o41j5az6mumj)" height="57.5977" rx="5" ry="5" style="stroke:#181818;stroke-width:2;" width="121.3691" x="202.32" y="472.0863"/><rect fill="#FFCC80" height="10" style="stroke:#181818;stroke-width:2;" width="15" x="303.6891" y="477.0863"/><rect fill="#FFCC80" height="2" style="stroke:#181818;stroke-width:2;" width="4" x="301.6891" y="479.0863"/><rect fill="#FFCC80" height="2" style="stroke:#181818;stroke-width:2;" width="4" x="301.6891" y="483.0863"/><text fill="#000000" font-family="Arial" font-size="12" lengthAdjust="spacing" textLength="81.3691" x="217.32" y="503.3421">Spring Security</text><text fill="#000000" font-family="Arial" font-size="12" lengthAdjust="spacing" textLength="24.6563" x="217.32" y="517.141">JWT</text></g><!--entity DB--><g class="entity" data-entity="DB" data-source-line="52" data-uid="ent0010" id="entity_DB"><path d="M31.56,655.6863 C31.56,645.6863 86.0031,645.6863 86.0031,645.6863 C86.0031,645.6863 140.4462,645.6863 140.4462,655.6863 L140.4462,679.635 C140.4462,689.635 86.0031,689.635 86.0031,689.635 C86.0031,689.635 31.56,689.635 31.56,679.635 L31.56,655.6863" fill="#F48FB1" filter="url(#f1o41j5az6mumj)" style="stroke:#181818;stroke-width:0.5;"/><path d="M31.56,655.6863 C31.56,665.6863 86.0031,665.6863 86.0031,665.6863 C86.0031,665.6863 140.4462,665.6863 140.4462,655.6863" fill="none" style="stroke:#181818;stroke-width:0.5;"/><text fill="#000000" font-family="Arial" font-size="13" lengthAdjust="spacing" textLength="88.8862" x="41.56" y="681.8801">PostgreSQL 17</text></g><!--entity SMTP--><g class="entity" data-entity="SMTP" data-source-line="57" data-uid="ent0012" id="entity_SMTP"><rect fill="#CE93D8" filter="url(#f1o41j5az6mumj)" height="43.7988" rx="5" ry="5" style="stroke:#181818;stroke-width:2;" width="108.0039" x="384" y="478.9863"/><rect fill="#CE93D8" height="10" style="stroke:#181818;stroke-width:2;" width="15" x="472.0039" y="483.9863"/><rect fill="#CE93D8" height="2" style="stroke:#181818;stroke-width:2;" width="4" x="470.0039" y="485.9863"/><rect fill="#CE93D8" height="2" style="stroke:#181818;stroke-width:2;" width="4" x="470.0039" y="489.9863"/><text fill="#000000" font-family="Arial" font-size="12" lengthAdjust="spacing" textLength="68.0039" x="399" y="510.2421">SMTP Gmail</text></g><!--link Browser to React--><g class="link" data-entity-1="Browser" data-entity-2="React" data-source-line="61" data-uid="lnk13" id="link_Browser_React"><path d="M86,169.7863 C86,199.1563 86,246.2863 86,279.0063" fill="none" id="Browser-to-React" style="stroke:#2E7D32;stroke-width:2;"/><polygon fill="#2E7D32" points="86,285.0063,90,276.0063,86,280.0063,82,276.0063,86,285.0063" style="stroke:#2E7D32;stroke-width:2;"/><text fill="#2E7D32" font-family="Arial" font-size="11" font-weight="bold" lengthAdjust="spacing" textLength="36.0562" x="87" y="212.8142">HTTPS</text></g><!--link React to Spring--><g class="link" data-entity-1="React" data-entity-2="Spring" data-source-line="62" data-uid="lnk14" id="link_React_Spring"><path d="M86,343.3263 C86,378.1263 86,431.1163 86,465.8963" fill="none" id="React-to-Spring" style="stroke:#1565C0;stroke-width:2;"/><polygon fill="#1565C0" points="86,471.8963,90,462.8963,86,466.8963,82,462.8963,86,471.8963" style="stroke:#1565C0;stroke-width:2;"/><text fill="#1565C0" font-family="Arial" font-size="11" font-weight="bold" lengthAdjust="spacing" textLength="50.73" x="87" y="386.4042">REST API</text><text fill="#000000" font-family="Arial" font-size="11" lengthAdjust="spacing" textLength="29.3369" x="97.6965" y="399.0531">JSON</text></g><!--link Spring to Security--><g class="link" data-entity-1="Spring" data-entity-2="Security" data-source-line="63" data-uid="lnk15" id="link_Spring_Security"><path d="M142.7,500.8863 C162.43,500.8863 176.17,500.8863 195.91,500.8863" fill="none" id="Spring-to-Security" style="stroke:#EF6C00;stroke-width:2;"/><polygon fill="#EF6C00" points="201.91,500.8863,192.91,496.8863,196.91,500.8863,192.91,504.8863,201.91,500.8863" style="stroke:#EF6C00;stroke-width:2;"/></g><!--link Spring to DB--><g class="link" data-entity-1="Spring" data-entity-2="DB" data-source-line="64" data-uid="lnk16" id="link_Spring_DB"><path d="M86,529.8363 C86,562.5263 86,609.9063 86,639.3963" fill="none" id="Spring-to-DB" style="stroke:#C2185B;stroke-width:2;"/><polygon fill="#C2185B" points="86,645.3963,90,636.3963,86,640.3963,82,636.3963,86,645.3963" style="stroke:#C2185B;stroke-width:2;"/><text fill="#C2185B" font-family="Arial" font-size="11" font-weight="bold" lengthAdjust="spacing" textLength="54.4038" x="87" y="573.0042">JPA/JDBC</text></g><!--link Spring to SMTP--><g class="link" data-entity-1="Spring" data-entity-2="SMTP" data-source-line="65" data-uid="lnk17" id="link_Spring_SMTP"><path d="M104.34,471.8663 C119.59,450.5863 143.37,423.1963 172,410.0863 C215.26,390.2863 231.44,405.4363 279,406.6363 C309.25,407.4063 319.34,397.8163 347,410.0863 C379.85,424.6563 403.8393,451.9651 419.7493,473.8251" fill="none" id="Spring-to-SMTP" style="stroke:#7B1FA2;stroke-width:2;"/><polygon fill="#7B1FA2" points="423.28,478.6763,421.218,469.0457,420.3377,474.6336,414.7498,473.7534,423.28,478.6763" style="stroke:#7B1FA2;stroke-width:2;"/><text fill="#7B1FA2" font-family="Arial" font-size="11" font-weight="bold" lengthAdjust="spacing" textLength="30.5562" x="248" y="392.9042">SMTP</text></g><g class="legend" data-source-line="67"><rect fill="none" height="110.5918" rx="5" ry="5" style="stroke:#000000;stroke-width:1;" width="225.5439" x="273.4561" y="728.6363"/><text fill="#000000" font-family="Arial" font-size="14" font-weight="bold" lengthAdjust="spacing" textLength="51.3379" x="282.3457" y="748.7681">Couche</text><text fill="#000000" font-family="Arial" font-size="14" font-weight="bold" lengthAdjust="spacing" textLength="82.4482" x="368.7314" y="748.7681">Technologie</text><text fill="#000000" font-family="Arial" font-size="14" lengthAdjust="spacing" textLength="35.793" x="282.3457" y="764.8668">Client</text><text fill="#000000" font-family="Arial" font-size="14" lengthAdjust="spacing" textLength="67.7031" x="368.7314" y="764.8668">Navigateur</text><text fill="#000000" font-family="Arial" font-size="14" lengthAdjust="spacing" textLength="78.6064" x="282.3457" y="780.9654">Pr&#233;sentation</text><text fill="#000000" font-family="Arial" font-size="14" lengthAdjust="spacing" textLength="87.9375" x="368.7314" y="780.9654">React 18, Vite</text><text fill="#000000" font-family="Arial" font-size="14" lengthAdjust="spacing" textLength="38.8965" x="282.3457" y="797.064">M&#233;tier</text><text fill="#000000" font-family="Arial" font-size="14" lengthAdjust="spacing" textLength="121.3789" x="368.7314" y="797.064">Spring Boot 3, JWT</text><text fill="#000000" font-family="Arial" font-size="14" lengthAdjust="spacing" textLength="56.041" x="282.3457" y="813.1627">Donn&#233;es</text><text fill="#000000" font-family="Arial" font-size="14" lengthAdjust="spacing" textLength="95.7236" x="368.7314" y="813.1627">PostgreSQL 17</text><text fill="#000000" font-family="Arial" font-size="14" lengthAdjust="spacing" textLength="48.248" x="282.3457" y="829.2613">Externe</text><text fill="#000000" font-family="Arial" font-size="14" lengthAdjust="spacing" textLength="79.3379" x="368.7314" y="829.2613">Gmail SMTP</text><line style="stroke:#000000;stroke-width:1;" x1="278.4561" x2="494" y1="735.6363" y2="735.6363"/><line style="stroke:#000000;stroke-width:1;" x1="278.4561" x2="494" y1="751.7349" y2="751.7349"/><line style="stroke:#000000;stroke-width:1;" x1="278.4561" x2="494" y1="767.8336" y2="767.8336"/><line style="stroke:#000000;stroke-width:1;" x1="278.4561" x2="494" y1="783.9322" y2="783.9322"/><line style="stroke:#000000;stroke-width:1;" x1="278.4561" x2="494" y1="800.0308" y2="800.0308"/><line style="stroke:#000000;stroke-width:1;" x1="278.4561" x2="494" y1="816.1295" y2="816.1295"/><line style="stroke:#000000;stroke-width:1;" x1="278.4561" x2="494" y1="832.2281" y2="832.2281"/><line style="stroke:#000000;stroke-width:1;" x1="278.4561" x2="278.4561" y1="735.6363" y2="832.2281"/><line style="stroke:#000000;stroke-width:1;" x1="364.8418" x2="364.8418" y1="735.6363" y2="832.2281"/><line style="stroke:#000000;stroke-width:1;" x1="494" x2="494" y1="735.6363" y2="832.2281"/></g><!--SRC=[XLJTKjiu5BxtKwZDnRRJCiHs4W8JCcFBSXiAJXfxsvqfp8xYg8a6Hyx82fIMVG1kzZruZhnOZooRc59skGYMllETyvqVdHTpzfKBXl3fY4J9t_uxr2Bzi4iEhHSL4ax7KKAYm61kw8J10-Px-4CDXM7ealO357Y9vtinCHWc7O8VCF9NGgQHTsembtJ3hcKLbroigQGhDAFfvKBc6p77UPPBTBtaYZLmy48tcGfpeIAwOiYJd6Q_nsF-dI7RRO35aixpQouMICbDqsiLK0ecaTrk02AViuAjKQzvAQcur9VTTbEvPAcYOf4nzCD2yEVdSivaikJffM15WPpojXIcRi1gbcVptLMfjMFzq_IOvgjrBfXG_- -nf3kFwLJA_BgYFa-ooxCfTglRwP43JxjHN876GG4sHqvdE9WDFPdgNgHg8nboznBEP37Odmq7-zfeU2vybW5b-o_yJAZykbbjxvbb_O6EZuyH7l-9tvDgqlIDjIlNoqVWIqGBT6hNerZftvNYIqIl-88gjf7eCvjTQ7CV4YsWTItS9prygFK_2ZkPaXXSUybe7A5NeOJacPY_VaR7PBgzUp0tSfnw-f_AcJAQAcJtpyKRbDoiMPnAlbQbB0ErV3yWeVz4r1b9HcIANlamyV-Xvcnxf-sC3hT-Qazrn6kf1zlFSuNSSt52hoYo3qeT5GHKqlQTPuWnIpUIgnkWVauChRhHH8pxxISP1ECe8YH-HhX6jtSaDiexzIAebC-feZDQWFaaBzH2ilZZAUWjZGCVZ3lzqBTt8MCo_JJ2f5eVvDUOly0cPhTUCB-frbaoGUzMb6ScLNriONBe1dqJ4-T2i6yy5mMwObBnb6QiG0LVhU6_LG_StfUMGmu2rxc0lIBsXbNBZz0WrG_gg4BrytcV99DOlnVBs03LxlQwk5rJgpxik0RMN1ZV17cJaQP3V-9nP5NMu8M4FTnkNqY-M2hjfkfQmm8xTh_hrt6WkhiO1j8nJYRU_adWurBYZdlWsw7dxBphGkte1jLq3PHKAsCB66TKCg3ijp0k-IPTClsLi7GfWBhWSDGWmXdN3Rb5ZMTja8dStXU0KGLTW7FzqDwYJx26AgEpxRs2HGHVZ-R_BO8Xham2w2HieaAxR8vQ1PDlYi7UXwzo74o6jnQaO1AnVW80]--></g></svg>