<svg xmlns="http://www.w3.org/2000/svg" xmlns:xlink="http://www.w3.org/1999/xlink" contentStyleType="text/css" data-diagram-type="CLASS" height="822px" preserveAspectRatio="none" style="width:584px;height:822px;background:#FFFFFF;" version="1.1" viewBox="0 0 584 822" width="584px" zoomAndPan="magnify"><title>&lt;size:22&gt;&lt;b&gt;Diagramme de Classes UML&lt;/b&gt;&lt;/size&gt;
&lt;size:14&gt;Belle &#206;le Parfum&#233;e - Entit&#233;s JPA&lt;/size&gt;</title><defs><filter height="300%" id="fkwfis0yojtrc" width="300%" x="-1" y="-1"><feGaussianBlur result="blurOut" stdDeviation="2"/><feColorMatrix in="blurOut" result="blurOut2" type="matrix" values="0 0 0 0 0 0 0 0 0 0 0 0 0 0 0 0 0 0 .4 0"/><feOffset dx="4" dy="4" in="blurOut2" result="blurOut3"/><feBlend in="SourceGraphic" in2="blurOut3" mode="normal"/></filter></defs><g><g class="title" data-source-line="41"><text fill="#000000" font-family="Arial" font-size="22" font-weight="bold" lengthAdjust="spacing" textLength="294.6689" x="137.7037" y="30.6357">Diagramme de Classes UML</text><text fill="#000000" font-family="Arial" font-size="14" font-weight="bold" lengthAdjust="spacing" textLength="210.8545" x="179.6109" y="48.4297">Belle &#206;le Parfum&#233;e - Entit&#233;s JPA</text></g><!--class OrderStatus--><g class="entity" data-entity="OrderStatus" data-source-line="44" data-uid="ent0002" id="entity_OrderStatus"><rect fill="#E8EAF6" filter="url(#fkwfis0yojtrc)" height="96.144" rx="2.5" ry="2.5" style="stroke:#3F51B5;stroke-width:2;" width="112.728" x="418.51" y="574.8665"/><rect fill="#3F51B5" height="38.7476" rx="2.5" ry="2.5" style="stroke:#3F51B5;stroke-width:2;" width="112.728" x="418.51" y="574.8665"/><rect fill="#3F51B5" height="2.5" style="stroke:#3F51B5;stroke-width:2;" width="112.728" x="418.51" y="611.114"/><rect fill="none" height="96.144" rx="2.5" ry="2.5" style="stroke:#3F51B5;stroke-width:2;" width="112.728" x="418.51" y="574.8665"/><ellipse cx="432.51" cy="594.2403" fill="#EB937F" rx="10" ry="10" style="stroke:#181818;stroke-width:1;"/><path d="M435.4797,598.9903 L429.5764,598.9903 L429.5764,589.5132 L435.4797,589.5132 L435.4797,591.1636 L431.449,591.1636 L431.449,593.2075 L435.0989,593.2075 L435.0989,594.8579 L431.449,594.8579 L431.449,597.3399 L435.4797,597.3399 Z " fill="#000000"/><text fill="#7986CB" font-family="Arial" font-size="13" font-style="italic" lengthAdjust="spacing" textLength="86.728" x="443.51" y="592.0603">&#171;enumeration&#187;</text><text fill="#37474F" font-family="Arial" font-size="12" font-weight="bold" lengthAdjust="spacing" textLength="69.3516" x="452.1982" y="606.0711">OrderStatus</text><line style="stroke:#3F51B5;stroke-width:2;" x1="419.51" x2="530.238" y1="613.614" y2="613.614"/><text fill="#37474F" font-family="Arial" font-size="12" lengthAdjust="spacing" textLength="54.6738" x="424.51" y="628.8699">PENDING</text><text fill="#37474F" font-family="Arial" font-size="12" lengthAdjust="spacing" textLength="74.6777" x="424.51" y="642.6687">COMPLETED</text><text fill="#37474F" font-family="Arial" font-size="12" lengthAdjust="spacing" textLength="72.0234" x="424.51" y="656.4676">CANCELLED</text><line style="stroke:#3F51B5;stroke-width:2;" x1="419.51" x2="530.238" y1="663.0105" y2="663.0105"/></g><!--class Account--><g class="entity" data-entity="Account" data-source-line="51" data-uid="ent0003" id="entity_Account"><rect fill="#E8EAF6" filter="url(#fkwfis0yojtrc)" height="137.5405" rx="2.5" ry="2.5" style="stroke:#3F51B5;stroke-width:2;" width="133.0352" x="209.36" y="315.2265"/><rect fill="#3F51B5" height="38.7476" rx="2.5" ry="2.5" style="stroke:#3F51B5;stroke-width:2;" width="133.0352" x="209.36" y="315.2265"/><rect fill="#3F51B5" height="2.5" style="stroke:#3F51B5;stroke-width:2;" width="133.0352" x="209.36" y="351.474"/><rect fill="none" height="137.5405" rx="2.5" ry="2.5" style="stroke:#3F51B5;stroke-width:2;" width="133.0352" x="209.36" y="315.2265"/><ellipse cx="248.1258" cy="334.6003" fill="#ADD1B2" rx="10" ry="10" style="stroke:#181818;stroke-width:1;"/><path d="M249.9876,338.8273 Q249.5433,339.0558 249.0545,339.1701 Q248.5658,339.2843 248.0262,339.2843 Q246.1092,339.2843 245.0999,338.0212 Q244.0907,336.758 244.0907,334.3713 Q244.0907,331.9782 245.0999,330.715 Q246.1092,329.4518 248.0262,329.4518 Q248.5658,329.4518 249.0609,329.5661 Q249.556,329.6803 249.9876,329.9089 L249.9876,331.9909 Q249.5052,331.5466 249.0514,331.3403 Q248.5975,331.134 248.1151,331.134 Q247.0868,331.134 246.5631,331.9496 Q246.0394,332.7653 246.0394,334.3713 Q246.0394,335.9709 246.5631,336.7865 Q247.0868,337.6022 248.1151,337.6022 Q248.5975,337.6022 249.0514,337.3959 Q249.5052,337.1896 249.9876,336.7453 Z " fill="#000000"/><text fill="#7986CB" font-family="Arial" font-size="13" font-style="italic" lengthAdjust="spacing" textLength="46.9727" x="267.143" y="332.4203">&#171;Entity&#187;</text><text fill="#37474F" font-family="Arial" font-size="12" font-weight="bold" lengthAdjust="spacing" textLength="48" x="266.6293" y="346.4311">Account</text><line style="stroke:#3F51B5;stroke-width:2;" x1="210.36" x2="341.3952" y1="353.974" y2="353.974"/><rect fill="none" height="6" style="stroke:#C82930;stroke-width:1;" width="6" x="217.36" y="363.3735"/><text fill="#37474F" font-family="Arial" font-size="12" lengthAdjust="spacing" textLength="102.7148" x="228.36" y="369.2299">email : String &#171;PK&#187;</text><rect fill="none" height="6" style="stroke:#C82930;stroke-width:1;" width="6" x="217.36" y="377.1723"/><text fill="#37474F" font-family="Arial" font-size="12" lengthAdjust="spacing" textLength="92.707" x="228.36" y="383.0287">password : String</text><rect fill="none" height="6" style="stroke:#C82930;stroke-width:1;" width="6" x="217.36" y="390.9711"/><text fill="#37474F" font-family="Arial" font-size="12" lengthAdjust="spacing" textLength="61.3594" x="228.36" y="396.8276">role : String</text><line style="stroke:#3F51B5;stroke-width:1;" x1="210.36" x2="341.3952" y1="403.3705" y2="403.3705"/><line style="stroke:#3F51B5;stroke-width:1;" x1="210.36" x2="341.3952" y1="405.3705" y2="405.3705"/><ellipse cx="220.36" cy="415.7699" fill="#84BE84" rx="3" ry="3" style="stroke:#038048;stroke-width:1;"/><text fill="#37474F" font-family="Arial" font-size="12" lengthAdjust="spacing" textLength="96.0293" x="228.36" y="418.6264">getEmail() : String</text><ellipse cx="220.36" cy="429.5688" fill="#84BE84" rx="3" ry="3" style="stroke:#038048;stroke-width:1;"/><text fill="#37474F" font-family="Arial" font-size="12" lengthAdjust="spacing" textLength="108.0352" x="228.36" y="432.4252">setPassword(String)</text><ellipse cx="220.36" cy="443.3676" fill="#84BE84" rx="3" ry="3" style="stroke:#038048;stroke-width:1;"/><text fill="#37474F" font-family="Arial" font-size="12" lengthAdjust="spacing" textLength="90.7031" x="228.36" y="446.224">getRole() : String</text></g><!--class Client--><g class="entity" data-entity="Client" data-source-line="61" data-uid="ent0004" id="entity_Client"><rect fill="#E8EAF6" filter="url(#fkwfis0yojtrc)" height="137.5405" rx="2.5" ry="2.5" style="stroke:#3F51B5;stroke-width:2;" width="142.3984" x="303.68" y="69.3965"/><rect fill="#3F51B5" height="38.7476" rx="2.5" ry="2.5" style="stroke:#3F51B5;stroke-width:2;" width="142.3984" x="303.68" y="69.3965"/><rect fill="#3F51B5" height="2.5" style="stroke:#3F51B5;stroke-width:2;" width="142.3984" x="303.68" y="105.644"/><rect fill="none" height="137.5405" rx="2.5" ry="2.5" style="stroke:#3F51B5;stroke-width:2;" width="142.3984" x="303.68" y="69.3965"/><ellipse cx="349.3929" cy="88.7703" fill="#ADD1B2" rx="10" ry="10" style="stroke:#181818;stroke-width:1;"/><path d="M351.2547,92.9973 Q350.8104,93.2258 350.3216,93.3401 Q349.8328,93.4543 349.2933,93.4543 Q347.3763,93.4543 346.367,92.1912 Q345.3577,90.928 345.3577,88.5413 Q345.3577,86.1482 346.367,84.885 Q347.3763,83.6218 349.2933,83.6218 Q349.8328,83.6218 350.3279,83.7361 Q350.8231,83.8503 351.2547,84.0789 L351.2547,86.1609 Q350.7723,85.7166 350.3184,85.5103 Q349.8646,85.304 349.3821,85.304 Q348.3538,85.304 347.8301,86.1196 Q347.3065,86.9353 347.3065,88.5413 Q347.3065,90.1409 347.8301,90.9565 Q348.3538,91.7722 349.3821,91.7722 Q349.8646,91.7722 350.3184,91.5659 Q350.7723,91.3596 351.2547,90.9153 Z " fill="#000000"/><text fill="#7986CB" font-family="Arial" font-size="13" font-style="italic" lengthAdjust="spacing" textLength="46.9727" x="366.3929" y="86.5903">&#171;Entity&#187;</text><text fill="#37474F" font-family="Arial" font-size="12" font-weight="bold" lengthAdjust="spacing" textLength="33.334" x="373.2122" y="100.6011">Client</text><line style="stroke:#3F51B5;stroke-width:2;" x1="304.68" x2="445.0784" y1="108.144" y2="108.144"/><rect fill="none" height="6" style="stroke:#C82930;stroke-width:1;" width="6" x="311.68" y="117.5435"/><text fill="#37474F" font-family="Arial" font-size="12" lengthAdjust="spacing" textLength="102.7148" x="322.68" y="123.3999">email : String &#171;PK&#187;</text><rect fill="none" height="6" style="stroke:#C82930;stroke-width:1;" width="6" x="311.68" y="131.3423"/><text fill="#37474F" font-family="Arial" font-size="12" lengthAdjust="spacing" textLength="92.0332" x="322.68" y="137.1987">lastName : String</text><rect fill="none" height="6" style="stroke:#C82930;stroke-width:1;" width="6" x="311.68" y="145.1411"/><text fill="#37474F" font-family="Arial" font-size="12" lengthAdjust="spacing" textLength="92.6895" x="322.68" y="150.9976">firstName : String</text><rect fill="none" height="6" style="stroke:#C82930;stroke-width:1;" width="6" x="311.68" y="158.9399"/><text fill="#37474F" font-family="Arial" font-size="12" lengthAdjust="spacing" textLength="117.3984" x="322.68" y="164.7964">phoneNumber : String</text><line style="stroke:#3F51B5;stroke-width:1;" x1="304.68" x2="445.0784" y1="171.3394" y2="171.3394"/><line style="stroke:#3F51B5;stroke-width:1;" x1="304.68" x2="445.0784" y1="173.3394" y2="173.3394"/><ellipse cx="314.68" cy="183.7388" fill="#84BE84" rx="3" ry="3" style="stroke:#038048;stroke-width:1;"/><text fill="#37474F" font-family="Arial" font-size="12" lengthAdjust="spacing" textLength="117.3691" x="322.68" y="186.5952">getFullName() : String</text><ellipse cx="314.68" cy="197.5376" fill="#84BE84" rx="3" ry="3" style="stroke:#038048;stroke-width:1;"/><text fill="#37474F" font-family="Arial" font-size="12" lengthAdjust="spacing" textLength="96.0293" x="322.68" y="200.394">getEmail() : String</text></g><!--class Product--><g class="entity" data-entity="Product" data-source-line="71" data-uid="ent0005" id="entity_Product"><rect fill="#E8EAF6" filter="url(#fkwfis0yojtrc)" height="234.1323" rx="2.5" ry="2.5" style="stroke:#3F51B5;stroke-width:2;" width="167.752" x="7" y="266.9365"/><rect fill="#3F51B5" height="38.7476" rx="2.5" ry="2.5" style="stroke:#3F51B5;stroke-width:2;" width="167.752" x="7" y="266.9365"/><rect fill="#3F51B5" height="2.5" style="stroke:#3F51B5;stroke-width:2;" width="167.752" x="7" y="303.184"/><rect fill="none" height="234.1323" rx="2.5" ry="2.5" style="stroke:#3F51B5;stroke-width:2;" width="167.752" x="7" y="266.9365"/><ellipse cx="64.209" cy="286.3103" fill="#ADD1B2" rx="10" ry="10" style="stroke:#181818;stroke-width:1;"/><path d="M66.0708,290.5373 Q65.6265,290.7658 65.1377,290.8801 Q64.6489,290.9943 64.1094,290.9943 Q62.1924,290.9943 61.1831,289.7312 Q60.1738,288.468 60.1738,286.0813 Q60.1738,283.6882 61.1831,282.425 Q62.1924,281.1618 64.1094,281.1618 Q64.6489,281.1618 65.144,281.2761 Q65.6392,281.3903 66.0708,281.6189 L66.0708,283.7009 Q65.5884,283.2566 65.1345,283.0503 Q64.6807,282.844 64.1982,282.844 Q63.1699,282.844 62.6462,283.6596 Q62.1226,284.4753 62.1226,286.0813 Q62.1226,287.6809 62.6462,288.4965 Q63.1699,289.3122 64.1982,289.3122 Q64.6807,289.3122 65.1345,289.1059 Q65.5884,288.8996 66.0708,288.4553 Z " fill="#000000"/><text fill="#7986CB" font-family="Arial" font-size="13" font-style="italic" lengthAdjust="spacing" textLength="46.9727" x="82.3896" y="284.1303">&#171;Entity&#187;</text><text fill="#37474F" font-family="Arial" font-size="12" font-weight="bold" lengthAdjust="spacing" textLength="45.334" x="83.209" y="298.1411">Product</text><line style="stroke:#3F51B5;stroke-width:2;" x1="8" x2="173.752" y1="305.684" y2="305.684"/><rect fill="none" height="6" style="stroke:#C82930;stroke-width:1;" width="6" x="15" y="315.0835"/><text fill="#37474F" font-family="Arial" font-size="12" lengthAdjust="spacing" textLength="142.752" x="26" y="320.9399">productCode : String &#171;PK&#187;</text><rect fill="none" height="6" style="stroke:#C82930;stroke-width:1;" width="6" x="15" y="328.8823"/><text fill="#37474F" font-family="Arial" font-size="12" lengthAdjust="spacing" textLength="71.3672" x="26" y="334.7387">name : String</text><rect fill="none" height="6" style="stroke:#C82930;stroke-width:1;" width="6" x="15" y="342.6811"/><text fill="#37474F" font-family="Arial" font-size="12" lengthAdjust="spacing" textLength="72.041" x="26" y="348.5376">brand : String</text><rect fill="none" height="6" style="stroke:#C82930;stroke-width:1;" width="6" x="15" y="356.4799"/><text fill="#37474F" font-family="Arial" font-size="12" lengthAdjust="spacing" textLength="96.6973" x="26" y="362.3364">price : BigDecimal</text><rect fill="none" height="6" style="stroke:#C82930;stroke-width:1;" width="6" x="15" y="370.2788"/><text fill="#37474F" font-family="Arial" font-size="12" lengthAdjust="spacing" textLength="75.3691" x="26" y="376.1352">stock : Integer</text><rect fill="none" height="6" style="stroke:#C82930;stroke-width:1;" width="6" x="15" y="384.0776"/><text fill="#37474F" font-family="Arial" font-size="12" lengthAdjust="spacing" textLength="99.3809" x="26" y="389.934">description : String</text><rect fill="none" height="6" style="stroke:#C82930;stroke-width:1;" width="6" x="15" y="397.8764"/><text fill="#37474F" font-family="Arial" font-size="12" lengthAdjust="spacing" textLength="140.0742" x="26" y="403.7329">concentrationType : String</text><rect fill="none" height="6" style="stroke:#C82930;stroke-width:1;" width="6" x="15" y="411.6753"/><text fill="#37474F" font-family="Arial" font-size="12" lengthAdjust="spacing" textLength="78.7148" x="26" y="417.5317">gender : String</text><rect fill="none" height="6" style="stroke:#C82930;stroke-width:1;" width="6" x="15" y="425.4741"/><text fill="#37474F" font-family="Arial" font-size="12" lengthAdjust="spacing" textLength="68.7012" x="26" y="431.3305">size : Integer</text><line style="stroke:#3F51B5;stroke-width:1;" x1="8" x2="173.752" y1="437.8735" y2="437.8735"/><line style="stroke:#3F51B5;stroke-width:1;" x1="8" x2="173.752" y1="439.8735" y2="439.8735"/><ellipse cx="18" cy="450.2729" fill="#84BE84" rx="3" ry="3" style="stroke:#038048;stroke-width:1;"/><text fill="#37474F" font-family="Arial" font-size="12" lengthAdjust="spacing" textLength="136.0664" x="26" y="453.1294">getProductCode() : String</text><ellipse cx="18" cy="464.0717" fill="#84BE84" rx="3" ry="3" style="stroke:#038048;stroke-width:1;"/><text fill="#37474F" font-family="Arial" font-size="12" lengthAdjust="spacing" textLength="98.0332" x="26" y="466.9282">getName() : String</text><ellipse cx="18" cy="477.8706" fill="#84BE84" rx="3" ry="3" style="stroke:#038048;stroke-width:1;"/><text fill="#37474F" font-family="Arial" font-size="12" lengthAdjust="spacing" textLength="122.7012" x="26" y="480.727">getPrice() : BigDecimal</text><ellipse cx="18" cy="491.6694" fill="#84BE84" rx="3" ry="3" style="stroke:#038048;stroke-width:1;"/><text fill="#37474F" font-family="Arial" font-size="12" lengthAdjust="spacing" textLength="109.3887" x="26" y="494.5258">isInStock() : boolean</text></g><!--class Order--><g class="entity" data-entity="Order" data-source-line="88" data-uid="ent0006" id="entity_Order"><rect fill="#E8EAF6" filter="url(#fkwfis0yojtrc)" height="137.5405" rx="2.5" ry="2.5" style="stroke:#3F51B5;stroke-width:2;" width="194.4063" x="377.67" y="315.2265"/><rect fill="#3F51B5" height="38.7476" rx="2.5" ry="2.5" style="stroke:#3F51B5;stroke-width:2;" width="194.4063" x="377.67" y="315.2265"/><rect fill="#3F51B5" height="2.5" style="stroke:#3F51B5;stroke-width:2;" width="194.4063" x="377.67" y="351.474"/><rect fill="none" height="137.5405" rx="2.5" ry="2.5" style="stroke:#3F51B5;stroke-width:2;" width="194.4063" x="377.67" y="315.2265"/><ellipse cx="449.3868" cy="334.6003" fill="#ADD1B2" rx="10" ry="10" style="stroke:#181818;stroke-width:1;"/><path d="M451.2486,338.8273 Q450.8043,339.0558 450.3155,339.1701 Q449.8267,339.2843 449.2872,339.2843 Q447.3702,339.2843 446.3609,338.0212 Q445.3516,336.758 445.3516,334.3713 Q445.3516,331.9782 446.3609,330.715 Q447.3702,329.4518 449.2872,329.4518 Q449.8267,329.4518 450.3219,329.5661 Q450.817,329.6803 451.2486,329.9089 L451.2486,331.9909 Q450.7662,331.5466 450.3123,331.3403 Q449.8585,331.134 449.3761,331.134 Q448.3477,331.134 447.8241,331.9496 Q447.3004,332.7653 447.3004,334.3713 Q447.3004,335.9709 447.8241,336.7865 Q448.3477,337.6022 449.3761,337.6022 Q449.8585,337.6022 450.3123,337.3959 Q450.7662,337.1896 451.2486,336.7453 Z " fill="#000000"/><text fill="#7986CB" font-family="Arial" font-size="13" font-style="italic" lengthAdjust="spacing" textLength="46.9727" x="466.3868" y="332.4203">&#171;Entity&#187;</text><text fill="#37474F" font-family="Arial" font-size="12" font-weight="bold" lengthAdjust="spacing" textLength="32.6777" x="473.5343" y="346.4311">Order</text><line style="stroke:#3F51B5;stroke-width:2;" x1="378.67" x2="571.0763" y1="353.974" y2="353.974"/><rect fill="none" height="6" style="stroke:#C82930;stroke-width:1;" width="6" x="385.67" y="363.3735"/><text fill="#37474F" font-family="Arial" font-size="12" lengthAdjust="spacing" textLength="169.4063" x="396.67" y="369.2299">commandNumber : String &#171;PK&#187;</text><rect fill="none" height="6" style="stroke:#C82930;stroke-width:1;" width="6" x="385.67" y="377.1723"/><text fill="#37474F" font-family="Arial" font-size="12" lengthAdjust="spacing" textLength="117.3984" x="396.67" y="383.0287">orderDate : LocalDate</text><rect fill="none" height="6" style="stroke:#C82930;stroke-width:1;" width="6" x="385.67" y="390.9711"/><text fill="#37474F" font-family="Arial" font-size="12" lengthAdjust="spacing" textLength="106.7109" x="396.67" y="396.8276">status : OrderStatus</text><line style="stroke:#3F51B5;stroke-width:1;" x1="378.67" x2="571.0763" y1="403.3705" y2="403.3705"/><line style="stroke:#3F51B5;stroke-width:1;" x1="378.67" x2="571.0763" y1="405.3705" y2="405.3705"/><ellipse cx="388.67" cy="415.7699" fill="#84BE84" rx="3" ry="3" style="stroke:#038048;stroke-width:1;"/><text fill="#37474F" font-family="Arial" font-size="12" lengthAdjust="spacing" textLength="164.0566" x="396.67" y="418.6264">getCommandNumber() : String</text><ellipse cx="388.67" cy="429.5688" fill="#84BE84" rx="3" ry="3" style="stroke:#038048;stroke-width:1;"/><text fill="#37474F" font-family="Arial" font-size="12" lengthAdjust="spacing" textLength="133.3887" x="396.67" y="432.4252">getStatus() : OrderStatus</text><ellipse cx="388.67" cy="443.3676" fill="#84BE84" rx="3" ry="3" style="stroke:#038048;stroke-width:1;"/><text fill="#37474F" font-family="Arial" font-size="12" lengthAdjust="spacing" textLength="149.3789" x="396.67" y="446.224">getTotalPrice() : BigDecimal</text></g><!--class OrderLine--><g class="entity" data-entity="OrderLine" data-source-line="98" data-uid="ent0007" id="entity_OrderLine"><rect fill="#E8EAF6" filter="url(#fkwfis0yojtrc)" height="123.7417" rx="2.5" ry="2.5" style="stroke:#3F51B5;stroke-width:2;" width="168.3906" x="110.68" y="561.0665"/><rect fill="#3F51B5" height="38.7476" rx="2.5" ry="2.5" style="stroke:#3F51B5;stroke-width:2;" width="168.3906" x="110.68" y="561.0665"/><rect fill="#3F51B5" height="2.5" style="stroke:#3F51B5;stroke-width:2;" width="168.3906" x="110.68" y="597.314"/><rect fill="none" height="123.7417" rx="2.5" ry="2.5" style="stroke:#3F51B5;stroke-width:2;" width="168.3906" x="110.68" y="561.0665"/><ellipse cx="162.2025" cy="580.4403" fill="#ADD1B2" rx="10" ry="10" style="stroke:#181818;stroke-width:1;"/><path d="M164.0643,584.6673 Q163.6199,584.8958 163.1312,585.0101 Q162.6424,585.1243 162.1029,585.1243 Q160.1859,585.1243 159.1766,583.8612 Q158.1673,582.598 158.1673,580.2113 Q158.1673,577.8182 159.1766,576.555 Q160.1859,575.2918 162.1029,575.2918 Q162.6424,575.2918 163.1375,575.4061 Q163.6326,575.5203 164.0643,575.7489 L164.0643,577.8309 Q163.5819,577.3866 163.128,577.1803 Q162.6741,576.974 162.1917,576.974 Q161.1634,576.974 160.6397,577.7896 Q160.116,578.6053 160.116,580.2113 Q160.116,581.8109 160.6397,582.6265 Q161.1634,583.4422 162.1917,583.4422 Q162.6741,583.4422 163.128,583.2359 Q163.5819,583.0296 164.0643,582.5853 Z " fill="#000000"/><text fill="#7986CB" font-family="Arial" font-size="13" font-style="italic" lengthAdjust="spacing" textLength="46.9727" x="186.389" y="578.2603">&#171;Entity&#187;</text><text fill="#37474F" font-family="Arial" font-size="12" font-weight="bold" lengthAdjust="spacing" textLength="57.3457" x="181.2025" y="592.2711">OrderLine</text><line style="stroke:#3F51B5;stroke-width:2;" x1="111.68" x2="278.0706" y1="599.814" y2="599.814"/><rect fill="none" height="6" style="stroke:#C82930;stroke-width:1;" width="6" x="118.68" y="609.2135"/><text fill="#37474F" font-family="Arial" font-size="12" lengthAdjust="spacing" textLength="115.4004" x="129.68" y="615.0699">id : OrderLineId &#171;PK&#187;</text><rect fill="none" height="6" style="stroke:#C82930;stroke-width:1;" width="6" x="118.68" y="623.0123"/><text fill="#37474F" font-family="Arial" font-size="12" lengthAdjust="spacing" textLength="89.3906" x="129.68" y="628.8687">quantity : Integer</text><rect fill="none" height="6" style="stroke:#C82930;stroke-width:1;" width="6" x="118.68" y="636.8111"/><text fill="#37474F" font-family="Arial" font-size="12" lengthAdjust="spacing" textLength="117.375" x="129.68" y="642.6676">unitPrice : BigDecimal</text><line style="stroke:#3F51B5;stroke-width:1;" x1="111.68" x2="278.0706" y1="649.2105" y2="649.2105"/><line style="stroke:#3F51B5;stroke-width:1;" x1="111.68" x2="278.0706" y1="651.2105" y2="651.2105"/><ellipse cx="121.68" cy="661.6099" fill="#84BE84" rx="3" ry="3" style="stroke:#038048;stroke-width:1;"/><text fill="#37474F" font-family="Arial" font-size="12" lengthAdjust="spacing" textLength="116.7246" x="129.68" y="664.4664">getQuantity() : Integer</text><ellipse cx="121.68" cy="675.4088" fill="#84BE84" rx="3" ry="3" style="stroke:#038048;stroke-width:1;"/><text fill="#37474F" font-family="Arial" font-size="12" lengthAdjust="spacing" textLength="143.3906" x="129.68" y="678.2652">getSubTotal() : BigDecimal</text></g><!--link Client to Account--><g class="link" data-entity-1="Client" data-entity-2="Account" data-source-line="111" data-uid="lnk8" id="link_Client_Account"><path codeLine="111" d="M323.04,207.2965 C323.04,240.9565 323.04,269.3165 323.04,302.9565" fill="none" id="Client-to-Account" style="stroke:#455A64;stroke-width:2;"/><polygon fill="none" points="323.04,314.9565,327.04,308.9565,323.04,302.9565,319.04,308.9565,323.04,314.9565" style="stroke:#455A64;stroke-width:2;"/><polygon fill="#455A64" points="218.0232,190.6008,220.9621,181.5558,215.0842,181.5558,218.0232,190.6008" style="stroke:#455A64;stroke-width:1;"/><text fill="#455A64" font-family="Arial" font-size="13" lengthAdjust="spacing" textLength="49.1499" x="227.0232" y="190.3203">poss&#232;de</text><path d="M172.04,201.5752 L172.04,250.5752 A2.5,2.5 0 0 0 174.54,253.0752 L312.54,253.0752 A2.5,2.5 0 0 0 315.04,250.5752 L315.04,209.0752 L305.04,199.0752 L174.54,199.0752 A2.5,2.5 0 0 0 172.04,201.5752" fill="#FEFFDD" filter="url(#fkwfis0yojtrc)" style="stroke:#181818;stroke-width:0.5;"/><path d="M305.04,199.0752 L305.04,207.8252 A1.25,1.25 0 0 0 306.29,209.0752 L315.04,209.0752 L305.04,199.0752" fill="#FEFFDD" style="stroke:#181818;stroke-width:0.5;"/><text fill="#000000" font-family="Arial" font-size="13" lengthAdjust="spacing" textLength="62.8799" x="178.04" y="216.2691">Agr&#233;gation</text><text fill="#000000" font-family="Arial" font-size="13" lengthAdjust="spacing" textLength="122.1162" x="178.04" y="231.2178">(Account peut exister</text><text fill="#000000" font-family="Arial" font-size="13" lengthAdjust="spacing" textLength="68.6372" x="178.04" y="246.1665">sans Client)</text><text fill="#455A64" font-family="Arial" font-size="13" lengthAdjust="spacing" textLength="7.23" x="310.6039" y="227.031">1</text><text fill="#455A64" font-family="Arial" font-size="13" lengthAdjust="spacing" textLength="21.6836" x="306.3186" y="304.413">0..1</text></g><!--reverse link Client to Order--><g class="link" data-entity-1="Client" data-entity-2="Order" data-source-line="114" data-uid="lnk9" id="link_Client_Order"><path codeLine="114" d="M411.87,219.2965 C411.87,252.9565 411.87,281.3165 411.87,314.9565" fill="none" id="Client-backto-Order" style="stroke:#455A64;stroke-width:2;"/><polygon fill="none" points="411.87,207.2965,407.87,213.2965,411.87,219.2965,415.87,213.2965,411.87,207.2965" style="stroke:#455A64;stroke-width:2;"/><polygon fill="#455A64" points="440.465,220.6008,443.4039,211.5558,437.526,211.5558,440.465,220.6008" style="stroke:#455A64;stroke-width:1;"/><text fill="#455A64" font-family="Arial" font-size="13" lengthAdjust="spacing" textLength="34.6899" x="449.465" y="220.3203">passe</text><path d="M416.87,231.5752 L416.87,250.5752 A2.5,2.5 0 0 0 419.37,253.0752 L497.37,253.0752 A2.5,2.5 0 0 0 499.87,250.5752 L499.87,239.0752 L489.87,229.0752 L419.37,229.0752 A2.5,2.5 0 0 0 416.87,231.5752" fill="#FEFFDD" filter="url(#fkwfis0yojtrc)" style="stroke:#181818;stroke-width:0.5;"/><path d="M489.87,229.0752 L489.87,237.8252 A1.25,1.25 0 0 0 491.12,239.0752 L499.87,239.0752 L489.87,229.0752" fill="#FEFFDD" style="stroke:#181818;stroke-width:0.5;"/><text fill="#000000" font-family="Arial" font-size="13" lengthAdjust="spacing" textLength="62.8799" x="422.87" y="246.2691">Agr&#233;gation</text><text fill="#455A64" font-family="Arial" font-size="13" lengthAdjust="spacing" textLength="7.23" x="408.1781" y="227.031">1</text><text fill="#455A64" font-family="Arial" font-size="13" lengthAdjust="spacing" textLength="19.5127" x="384.5165" y="304.413">0..*</text></g><!--reverse link Order to OrderLine--><g class="link" data-entity-1="Order" data-entity-2="OrderLine" data-source-line="117" data-uid="lnk10" id="link_Order_OrderLine"><path codeLine="117" d="M398.09,465.2265 C398.09,517.3265 398.09,567.8065 398.09,567.8065 C398.09,567.8065 335.13,567.8065 279.29,567.8065" fill="none" id="Order-backto-OrderLine" style="stroke:#455A64;stroke-width:2;"/><polygon fill="#455A64" points="398.09,453.2265,394.09,459.2265,398.09,465.2265,402.09,459.2265,398.09,453.2265" style="stroke:#455A64;stroke-width:2;"/><polygon fill="#455A64" points="450.926,495.5486,459.6929,491.8616,455.8514,487.4128,450.926,495.5486" style="stroke:#455A64;stroke-width:1;"/><text fill="#455A64" font-family="Arial" font-size="13" lengthAdjust="spacing" textLength="45.5317" x="463.7105" y="497.0003">contient</text><path d="M400.98,508.2552 L400.98,557.2552 A2.5,2.5 0 0 0 403.48,559.7552 L552.48,559.7552 A2.5,2.5 0 0 0 554.98,557.2552 L554.98,515.7552 L544.98,505.7552 L403.48,505.7552 A2.5,2.5 0 0 0 400.98,508.2552" fill="#FEFFDD" filter="url(#fkwfis0yojtrc)" style="stroke:#181818;stroke-width:0.5;"/><path d="M544.98,505.7552 L544.98,514.5052 A1.25,1.25 0 0 0 546.23,515.7552 L554.98,515.7552 L544.98,505.7552" fill="#FEFFDD" style="stroke:#181818;stroke-width:0.5;"/><text fill="#000000" font-family="Arial" font-size="13" lengthAdjust="spacing" textLength="72.2554" x="406.98" y="522.9491">Composition</text><text fill="#000000" font-family="Arial" font-size="13" lengthAdjust="spacing" textLength="133.9927" x="406.98" y="537.8978">(OrderLine n'existe pas</text><text fill="#000000" font-family="Arial" font-size="13" lengthAdjust="spacing" textLength="68.6309" x="406.98" y="552.8465">sans Order)</text><text fill="#455A64" font-family="Arial" font-size="13" lengthAdjust="spacing" textLength="7.23" x="383.1984" y="472.9709">1</text><text fill="#455A64" font-family="Arial" font-size="13" lengthAdjust="spacing" textLength="19.5127" x="287.0885" y="560.8944">1..*</text></g><!--reverse link Product to OrderLine--><g class="link" data-entity-1="Product" data-entity-2="OrderLine" data-source-line="120" data-uid="lnk11" id="link_Product_OrderLine"><path codeLine="120" d="M142.72,513.3665 C142.72,533.9065 142.72,542.5165 142.72,560.7965" fill="none" id="Product-backto-OrderLine" style="stroke:#455A64;stroke-width:2;"/><polygon fill="none" points="142.72,501.3665,138.72,507.3665,142.72,513.3665,146.72,507.3665,142.72,501.3665" style="stroke:#455A64;stroke-width:2;"/><polygon fill="#455A64" points="149.9995,490.5508,152.9385,481.5058,147.0606,481.5058,149.9995,490.5508" style="stroke:#455A64;stroke-width:1;"/><text fill="#455A64" font-family="Arial" font-size="13" lengthAdjust="spacing" textLength="77.3208" x="158.9995" y="490.2703">r&#233;f&#233;renc&#233; par</text><path d="M147.72,501.5252 L147.72,520.5252 A2.5,2.5 0 0 0 150.22,523.0252 L228.22,523.0252 A2.5,2.5 0 0 0 230.72,520.5252 L230.72,509.0252 L220.72,499.0252 L150.22,499.0252 A2.5,2.5 0 0 0 147.72,501.5252" fill="#FEFFDD" filter="url(#fkwfis0yojtrc)" style="stroke:#181818;stroke-width:0.5;"/><path d="M220.72,499.0252 L220.72,507.7752 A1.25,1.25 0 0 0 221.97,509.0252 L230.72,509.0252 L220.72,499.0252" fill="#FEFFDD" style="stroke:#181818;stroke-width:0.5;"/><text fill="#000000" font-family="Arial" font-size="13" lengthAdjust="spacing" textLength="62.8799" x="153.72" y="516.2191">Agr&#233;gation</text><text fill="#455A64" font-family="Arial" font-size="13" lengthAdjust="spacing" textLength="7.23" x="138.673" y="521.1677">1</text><text fill="#455A64" font-family="Arial" font-size="13" lengthAdjust="spacing" textLength="19.5127" x="115.8533" y="550.1924">0..*</text></g><!--link Order to OrderStatus--><g class="link" data-entity-1="Order" data-entity-2="OrderStatus" data-source-line="123" data-uid="lnk12" id="link_Order_OrderStatus"><path codeLine="123" d="M474.88,453.1065 C474.88,491.9765 474.88,533.5465 474.88,568.4465" fill="none" id="Order-to-OrderStatus" style="stroke:#455A64;stroke-width:2;"/><polygon fill="#455A64" points="474.88,574.4465,478.88,565.4465,474.88,569.4465,470.88,565.4465,474.88,574.4465" style="stroke:#455A64;stroke-width:2;"/><text fill="#455A64" font-family="Arial" font-size="13" lengthAdjust="spacing" textLength="35.4199" x="438.88" y="510.9703">&#171;use&#187;</text><text fill="#455A64" font-family="Arial" font-size="13" lengthAdjust="spacing" textLength="7.23" x="467.5316" y="473.1981">1</text><text fill="#455A64" font-family="Arial" font-size="13" lengthAdjust="spacing" textLength="7.23" x="467.3626" y="564.2158">1</text></g><g class="legend" data-source-line="126"><rect fill="none" height="94.4932" rx="2.5" ry="2.5" style="stroke:#000000;stroke-width:1;" width="318.9502" x="125.563" y="707.8082"/><text fill="#000000" font-family="Arial" font-size="14" font-weight="bold" lengthAdjust="spacing" textLength="58.3516" x="134.4527" y="727.94">Symbole</text><text fill="#000000" font-family="Arial" font-size="14" font-weight="bold" lengthAdjust="spacing" textLength="84" x="200.5835" y="727.94">Signification</text><text fill="#000000" font-family="Arial" font-size="14" lengthAdjust="spacing" textLength="49.793" x="134.4527" y="744.0387">&#9670;&#9472;&#9472;&#9472;&#9472;</text><text fill="#000000" font-family="Arial" font-size="14" lengthAdjust="spacing" textLength="182.0684" x="200.5835" y="744.0387">Composition (cycle de vie li&#233;)</text><text fill="#000000" font-family="Arial" font-size="14" lengthAdjust="spacing" textLength="48.2822" x="134.4527" y="760.1373">&#9671;&#9472;&#9472;&#9472;&#9472;</text><text fill="#000000" font-family="Arial" font-size="14" lengthAdjust="spacing" textLength="235.04" x="200.5835" y="760.1373">Agr&#233;gation (cycle de vie ind&#233;pendant)</text><text fill="#000000" font-family="Arial" font-size="14" lengthAdjust="spacing" textLength="47.8516" x="134.4527" y="776.2359">&#9472;&#9472;&#9472;&#9472;&gt;</text><text fill="#000000" font-family="Arial" font-size="14" lengthAdjust="spacing" textLength="162.6611" x="200.5835" y="776.2359">Association / D&#233;pendance</text><text fill="#000000" font-family="Arial" font-size="14" lengthAdjust="spacing" textLength="34.248" x="134.4527" y="792.3346">&#171;PK&#187;</text><text fill="#000000" font-family="Arial" font-size="14" lengthAdjust="spacing" textLength="75.4619" x="200.5835" y="792.3346">Cl&#233; primaire</text><line style="stroke:#000000;stroke-width:1;" x1="130.563" x2="439.5132" y1="714.8082" y2="714.8082"/><line style="stroke:#000000;stroke-width:1;" x1="130.563" x2="439.5132" y1="730.9068" y2="730.9068"/><line style="stroke:#000000;stroke-width:1;" x1="130.563" x2="439.5132" y1="747.0054" y2="747.0054"/><line style="stroke:#000000;stroke-width:1;" x1="130.563" x2="439.5132" y1="763.1041" y2="763.1041"/><line style="stroke:#000000;stroke-width:1;" x1="130.563" x2="439.5132" y1="779.2027" y2="779.2027"/><line style="stroke:#000000;stroke-width:1;" x1="130.563" x2="439.5132" y1="795.3013" y2="795.3013"/><line style="stroke:#000000;stroke-width:1;" x1="130.563" x2="130.563" y1="714.8082" y2="795.3013"/><line style="stroke:#000000;stroke-width:1;" x1="196.6939" x2="196.6939" y1="714.8082" y2="795.3013"/><line style="stroke:#000000;stroke-width:1;" x1="439.5132" x2="439.5132" y1="714.8082" y2="795.3013"/></g><!--SRC=[bLRTRjis5BxNKx39HPm6Rk8aJZB35U0VkVFcE5xiNWm8CD0Iun2HI9MYccLhWLsjwCsk1kmLvkVGc_H9TaZADYNBHMS4iSt3xvplVFnuv1S1kQUC86yy6yv-_gNx1krxLrvdSE6yA4LkRllUBTe_6pGRtQOLVNkjKOF1uCfhbDPp38G69oUEapnI5cE18pJ7_kD2y9G5FHvoWPuUg2HM7BBWD9G3pkGOHmHr1CLXTNnAVoEeSMO5amSSy2VA5aYArCwQ5nIC2DIqraDWB9zZWhYG3zpcwOSuIT3l3e9NjyHvBPc9SX4GKOpezgtex87wZun0nbEzgkWRn7wZStfswQrNf_8v96ZEmq0lVKymmCi4LcUnsR59Q0HLaOwKWivJIQngPvVdb-U3xR3Hqf2RIY88Lx9OmCllhYvwNUUZhH5XQRHJ8ksE2e7MxlWsURoBPWCSz1KjSe_jrgB06Gl1dtBIUOBpPhDpSLukRAtQz22Pf1AEg9s0PAtJKxSzT_iKBo0vs3KWgAUSGnBqzdhKFfwxxMErqRrZ1j0uTxia17ps5_oRO76VHjcIe3ho62JEbWdwOTB9GOvpW5vRBorVOSNHPt2ZH9nABDC4jTjgYGWiAMUkcxSwySRzuTYSH-_cUZBoPbxVVEkCUzve1Dy-LfG3EsUVfyMIvcfqV1yEGK8zJVnvNQgEI8HfY5fW9A7kOhiz-T5ryrWCs2Suz7KuNnSSv2YiGINrTeGMH7egO-smkE489KHEydmr4pZSO6uXems1zWppNaZ9_oSEK3EHIiJlgQWEn0-SaN4QpM7cx6nia8QX0c_tLjNrkeM9u47gL_OGcr2F1sH79wo2x5nWjdKciQ2-sjcbYpxnQGI3s0GIoVr720oP90iYyjM09BwWiV9TEPFFcG-Q6rFErC0jRLWG5fHrWZfgAXNBsE9DDgrMwhTJs8bgJ4TAhHqXcWpPLBMdmtCE9i9i8xo-QLMo-poAGCBIUHU5rxEkZwNgQSHz7AhFQqdrxMtPTtchuPvTfB8p0zIXSY8Tdt69myhsYosErAEyeaqQh3Ah7SEWsE2x56l0bZLIHetesvBR_VsKupKtEuFfBPrh-XNCItFhrXjrPiERSMbm7S34ZsAUqDoY8KymMn0KXuGoLFlopv-7wYIV_L0FylUKm0-4R0cupa9aomKkuTvJs0MmJrimoe9i6OEdeH_7oGVENcCFrUiSxPsyUWKVLmEqXO1IalqBKDTX7Dm1HU27YRfWLjqxLbiXOf9AH7wb2JoexnXmMSsqmq8jNg_hMY_tSjkszFJzUXd7CNjLWfSgGMEJG9kYfIwpr4MsybZo0jqDXXqOjgf-JbW7WUzgabKHpki1j_jiAGZpioLa4D_ClrvtzRlzU6o1OzE4kDlFrb7s-Gqy9RsYPqAYHXCC0Ybv15xyy1fDdwEvUbgfZtJ1w3trZJC-g3W26ttv-u_r7wpOhgjjsUjmZVjKmjckg-tqrnflWLs5JXBkKuC-HltLVhY3Ph-vkOfUg7GLS9UeK47OPhfs_WC0]--></g></svg>