<svg xmlns="http://www.w3.org/2000/svg" xmlns:xlink="http://www.w3.org/1999/xlink" contentStyleType="text/css" data-diagram-type="SEQUENCE" height="862px" preserveAspectRatio="none" style="width:1231px;height:862px;background:#FAFAFA;" version="1.1" viewBox="0 0 1231 862" width="1231px" zoomAndPan="magnify"><title>&lt;size:20&gt;&lt;b&gt;Diagramme de S&#233;quence&lt;/b&gt;&lt;/size&gt;
&lt;size:14&gt;Ajout d'un produit au panier&lt;/size&gt;</title><defs><filter height="300%" id="fp3vjgrxh9a9c" width="300%" x="-1" y="-1"><feGaussianBlur result="blurOut" stdDeviation="2"/><feColorMatrix in="blurOut" result="blurOut2" type="matrix" values="0 0 0 0 0 0 0 0 0 0 0 0 0 0 0 0 0 0 .4 0"/><feOffset dx="4" dy="4" in="blurOut2" result="blurOut3"/><feBlend in="SourceGraphic" in2="blurOut3" mode="normal"/></filter></defs><g><rect fill="#FAFAFA" height="862" style="stroke:none;stroke-width:1;" width="1231" x="0" y="0"/><text fill="#000000" font-family="Arial" font-size="20" font-weight="bold" lengthAdjust="spacing" textLength="237.8711" x="495.502" y="33.7598">Diagramme de S&#233;quence</text><text fill="#000000" font-family="Arial" font-size="14" font-weight="bold" lengthAdjust="spacing" textLength="186.8672" x="521.0039" y="51.1299">Ajout d'un produit au panier</text><rect fill="#E3F2FD" height="790.1719" rx="4" ry="4" style="stroke:#78909C;stroke-width:0.5;" width="75.0215" x="194.4111" y="66.0967"/><text fill="#000000" font-family="Arial" font-size="12" font-weight="bold" lengthAdjust="spacing" textLength="51.9902" x="205.9268" y="77.3525">Frontend</text><rect fill="#FFF3E0" height="790.1719" rx="4" ry="4" style="stroke:#78909C;stroke-width:0.5;" width="627.1914" x="393.1377" y="66.0967"/><text fill="#000000" font-family="Arial" font-size="12" font-weight="bold" lengthAdjust="spacing" textLength="122.0098" x="645.7285" y="77.3525">Backend Spring Boot</text><g><title>React</title><rect fill="#BBDEFB" filter="url(#fp3vjgrxh9a9c)" height="480.5801" style="stroke:#181818;stroke-width:1;" width="10" x="226.9219" y="171.6943"/></g><g><title>REST</title><rect fill="#FFE0B2" filter="url(#fp3vjgrxh9a9c)" height="424.9824" style="stroke:#181818;stroke-width:1;" width="10" x="429.3047" y="199.4932"/></g><g><title>Cart</title><rect fill="#FFCC80" filter="url(#fp3vjgrxh9a9c)" height="369.3848" style="stroke:#181818;stroke-width:1;" width="10" x="698.4023" y="227.292"/></g><g><title>JPA</title><rect fill="#FFB74D" filter="url(#fp3vjgrxh9a9c)" height="83.3965" style="stroke:#181818;stroke-width:1;" width="10" x="971.4902" y="255.0908"/></g><g><title>JPA</title><rect fill="#FFB74D" filter="url(#fp3vjgrxh9a9c)" height="83.3965" style="stroke:#181818;stroke-width:1;" width="10" x="971.4902" y="429.8838"/></g><g><title>PostgreSQL</title><rect fill="#F8BBD9" filter="url(#fp3vjgrxh9a9c)" height="27.7988" style="stroke:#181818;stroke-width:1;" width="10" x="1169.1914" y="282.8896"/></g><g><title>PostgreSQL</title><rect fill="#F8BBD9" filter="url(#fp3vjgrxh9a9c)" height="27.7988" style="stroke:#181818;stroke-width:1;" width="10" x="1169.1914" y="457.6826"/></g><g><title>PostgreSQL</title><rect fill="#F8BBD9" filter="url(#fp3vjgrxh9a9c)" height="27.7988" style="stroke:#181818;stroke-width:1;" width="10" x="1169.1914" y="541.0791"/></g><rect fill="#E8F5E9" filter="url(#fp3vjgrxh9a9c)" height="365.1836" rx="4" ry="4" style="stroke:#1565C0;stroke-width:1.5;" width="1209.875" x="10" y="394.2861"/><path d="M10,660.2744 L1219.875,660.2744 L1219.875,755.4697 A4,4 0 0 1 1215.875,759.4697 L14,759.4697 A4,4 0 0 1 10,755.4697 L10,660.2744" fill="#FFEBEE" style="stroke:none;stroke-width:1;"/><g><title>Client</title><rect fill="#000000" fill-opacity="0.00000" height="634.5742" width="8" x="34.3398" y="141.8955"/><line style="stroke:#90A4AE;stroke-width:0.5;stroke-dasharray:5,5;" x1="38" x2="38" y1="141.8955" y2="776.4697"/></g><g><title>React</title><rect fill="#000000" fill-opacity="0.00000" height="634.5742" width="8" x="227.9219" y="141.8955"/><line style="stroke:#90A4AE;stroke-width:0.5;stroke-dasharray:5,5;" x1="231.4111" x2="231.4111" y1="141.8955" y2="776.4697"/></g><g><title>REST</title><rect fill="#000000" fill-opacity="0.00000" height="634.5742" width="8" x="430.3047" y="141.8955"/><line style="stroke:#90A4AE;stroke-width:0.5;stroke-dasharray:5,5;" x1="434.1377" x2="434.1377" y1="141.8955" y2="776.4697"/></g><g><title>Cart</title><rect fill="#000000" fill-opacity="0.00000" height="634.5742" width="8" x="699.4023" y="141.8955"/><line style="stroke:#90A4AE;stroke-width:0.5;stroke-dasharray:5,5;" x1="702.5508" x2="702.5508" y1="141.8955" y2="776.4697"/></g><g><title>JPA</title><rect fill="#000000" fill-opacity="0.00000" height="634.5742" width="8" x="972.4902" y="141.8955"/><line style="stroke:#90A4AE;stroke-width:0.5;stroke-dasharray:5,5;" x1="975.6514" x2="975.6514" y1="141.8955" y2="776.4697"/></g><g><title>PostgreSQL</title><rect fill="#000000" fill-opacity="0.00000" height="634.5742" width="8" x="1170.1914" y="141.8955"/><line style="stroke:#90A4AE;stroke-width:0.5;stroke-dasharray:5,5;" x1="1173.5078" x2="1173.5078" y1="141.8955" y2="776.4697"/></g><g class="participant participant-head" data-participant="Client"><text fill="#1B5E20" font-family="Arial" font-size="12" lengthAdjust="spacing" textLength="30.6797" x="20" y="139.3525">Client</text><ellipse cx="38.3398" cy="73.5967" fill="#E8F5E9" filter="url(#fp3vjgrxh9a9c)" rx="8" ry="8" style="stroke:#2E7D32;stroke-width:0.5;"/><path d="M38.3398,81.5967 L38.3398,108.5967 M25.3398,89.5967 L51.3398,89.5967 M38.3398,108.5967 L25.3398,123.5967 M38.3398,108.5967 L51.3398,123.5967" fill="none" filter="url(#fp3vjgrxh9a9c)" style="stroke:#2E7D32;stroke-width:0.5;"/></g><g class="participant participant-tail" data-participant="Client"><text fill="#1B5E20" font-family="Arial" font-size="12" lengthAdjust="spacing" textLength="30.6797" x="20" y="786.7256">Client</text><ellipse cx="38.3398" cy="797.7686" fill="#E8F5E9" filter="url(#fp3vjgrxh9a9c)" rx="8" ry="8" style="stroke:#2E7D32;stroke-width:0.5;"/><path d="M38.3398,805.7686 L38.3398,832.7686 M25.3398,813.7686 L51.3398,813.7686 M38.3398,832.7686 L25.3398,847.7686 M38.3398,832.7686 L51.3398,847.7686" fill="none" filter="url(#fp3vjgrxh9a9c)" style="stroke:#2E7D32;stroke-width:0.5;"/></g><g class="participant participant-head" data-participant="React"><rect fill="#BBDEFB" filter="url(#fp3vjgrxh9a9c)" height="41.5977" rx="4" ry="4" style="stroke:#37474F;stroke-width:2;" width="64.0215" x="198.4111" y="96.2979"/><text fill="#000000" font-family="Arial" font-size="12" font-weight="bold" lengthAdjust="spacing" textLength="32.6836" x="214.0801" y="114.5537">React</text><text fill="#000000" font-family="Arial" font-size="12" font-weight="bold" lengthAdjust="spacing" textLength="50.0215" x="205.4111" y="128.3525">Interface</text></g><g class="participant participant-tail" data-participant="React"><rect fill="#BBDEFB" filter="url(#fp3vjgrxh9a9c)" height="41.5977" rx="4" ry="4" style="stroke:#37474F;stroke-width:2;" width="64.0215" x="198.4111" y="775.4697"/><text fill="#000000" font-family="Arial" font-size="12" font-weight="bold" lengthAdjust="spacing" textLength="32.6836" x="214.0801" y="793.7256">React</text><text fill="#000000" font-family="Arial" font-size="12" font-weight="bold" lengthAdjust="spacing" textLength="50.0215" x="205.4111" y="807.5244">Interface</text></g><g class="participant participant-head" data-participant="API"><rect fill="#FFE0B2" filter="url(#fp3vjgrxh9a9c)" height="41.5977" rx="4" ry="4" style="stroke:#37474F;stroke-width:2;" width="71.334" x="397.1377" y="96.2979"/><text fill="#000000" font-family="Arial" font-size="12" font-weight="bold" lengthAdjust="spacing" textLength="32.0039" x="416.8027" y="114.5537">REST</text><text fill="#000000" font-family="Arial" font-size="12" font-weight="bold" lengthAdjust="spacing" textLength="57.334" x="404.1377" y="128.3525">Controller</text></g><g class="participant participant-tail" data-participant="API"><rect fill="#FFE0B2" filter="url(#fp3vjgrxh9a9c)" height="41.5977" rx="4" ry="4" style="stroke:#37474F;stroke-width:2;" width="71.334" x="397.1377" y="775.4697"/><text fill="#000000" font-family="Arial" font-size="12" font-weight="bold" lengthAdjust="spacing" textLength="32.0039" x="416.8027" y="793.7256">REST</text><text fill="#000000" font-family="Arial" font-size="12" font-weight="bold" lengthAdjust="spacing" textLength="57.334" x="404.1377" y="807.5244">Controller</text></g><g class="participant participant-head" data-participant="Service"><rect fill="#FFCC80" filter="url(#fp3vjgrxh9a9c)" height="41.5977" rx="4" ry="4" style="stroke:#37474F;stroke-width:2;" width="56.7031" x="673.5508" y="96.2979"/><text fill="#000000" font-family="Arial" font-size="12" font-weight="bold" lengthAdjust="spacing" textLength="24.0059" x="689.8994" y="114.5537">Cart</text><text fill="#000000" font-family="Arial" font-size="12" font-weight="bold" lengthAdjust="spacing" textLength="42.7031" x="680.5508" y="128.3525">Service</text></g><g class="participant participant-tail" data-participant="Service"><rect fill="#FFCC80" filter="url(#fp3vjgrxh9a9c)" height="41.5977" rx="4" ry="4" style="stroke:#37474F;stroke-width:2;" width="56.7031" x="673.5508" y="775.4697"/><text fill="#000000" font-family="Arial" font-size="12" font-weight="bold" lengthAdjust="spacing" textLength="24.0059" x="689.8994" y="793.7256">Cart</text><text fill="#000000" font-family="Arial" font-size="12" font-weight="bold" lengthAdjust="spacing" textLength="42.7031" x="680.5508" y="807.5244">Service</text></g><g class="participant participant-head" data-participant="Repo"><rect fill="#FFB74D" filter="url(#fp3vjgrxh9a9c)" height="41.5977" rx="4" ry="4" style="stroke:#37474F;stroke-width:2;" width="76.6777" x="936.6514" y="96.2979"/><text fill="#000000" font-family="Arial" font-size="12" font-weight="bold" lengthAdjust="spacing" textLength="23.3438" x="963.3184" y="114.5537">JPA</text><text fill="#000000" font-family="Arial" font-size="12" font-weight="bold" lengthAdjust="spacing" textLength="62.6777" x="943.6514" y="128.3525">Repository</text></g><g class="participant participant-tail" data-participant="Repo"><rect fill="#FFB74D" filter="url(#fp3vjgrxh9a9c)" height="41.5977" rx="4" ry="4" style="stroke:#37474F;stroke-width:2;" width="76.6777" x="936.6514" y="775.4697"/><text fill="#000000" font-family="Arial" font-size="12" font-weight="bold" lengthAdjust="spacing" textLength="23.3438" x="963.3184" y="793.7256">JPA</text><text fill="#000000" font-family="Arial" font-size="12" font-weight="bold" lengthAdjust="spacing" textLength="62.6777" x="943.6514" y="807.5244">Repository</text></g><g class="participant participant-head" data-participant="DB"><text fill="#880E4F" font-family="Arial" font-size="12" lengthAdjust="spacing" textLength="65.3672" x="1138.5078" y="139.3525">PostgreSQL</text><path d="M1156.1914,92.0967 C1156.1914,82.0967 1174.1914,82.0967 1174.1914,82.0967 C1174.1914,82.0967 1192.1914,82.0967 1192.1914,92.0967 L1192.1914,118.0967 C1192.1914,128.0967 1174.1914,128.0967 1174.1914,128.0967 C1174.1914,128.0967 1156.1914,128.0967 1156.1914,118.0967 L1156.1914,92.0967" fill="#F8BBD9" filter="url(#fp3vjgrxh9a9c)" style="stroke:#C2185B;stroke-width:0.5;"/><path d="M1156.1914,92.0967 C1156.1914,102.0967 1174.1914,102.0967 1174.1914,102.0967 C1174.1914,102.0967 1192.1914,102.0967 1192.1914,92.0967" fill="none" style="stroke:#C2185B;stroke-width:0.5;"/></g><g class="participant participant-tail" data-participant="DB"><text fill="#880E4F" font-family="Arial" font-size="12" lengthAdjust="spacing" textLength="65.3672" x="1138.5078" y="786.7256">PostgreSQL</text><path d="M1156.1914,799.2686 C1156.1914,789.2686 1174.1914,789.2686 1174.1914,789.2686 C1174.1914,789.2686 1192.1914,789.2686 1192.1914,799.2686 L1192.1914,825.2686 C1192.1914,835.2686 1174.1914,835.2686 1174.1914,835.2686 C1174.1914,835.2686 1156.1914,835.2686 1156.1914,825.2686 L1156.1914,799.2686" fill="#F8BBD9" filter="url(#fp3vjgrxh9a9c)" style="stroke:#C2185B;stroke-width:0.5;"/><path d="M1156.1914,799.2686 C1156.1914,809.2686 1174.1914,809.2686 1174.1914,809.2686 C1174.1914,809.2686 1192.1914,809.2686 1192.1914,799.2686" fill="none" style="stroke:#C2185B;stroke-width:0.5;"/></g><g><title>React</title><rect fill="#BBDEFB" filter="url(#fp3vjgrxh9a9c)" height="480.5801" style="stroke:#181818;stroke-width:1;" width="10" x="226.9219" y="171.6943"/></g><g><title>REST</title><rect fill="#FFE0B2" filter="url(#fp3vjgrxh9a9c)" height="424.9824" style="stroke:#181818;stroke-width:1;" width="10" x="429.3047" y="199.4932"/></g><g><title>Cart</title><rect fill="#FFCC80" filter="url(#fp3vjgrxh9a9c)" height="369.3848" style="stroke:#181818;stroke-width:1;" width="10" x="698.4023" y="227.292"/></g><g><title>JPA</title><rect fill="#FFB74D" filter="url(#fp3vjgrxh9a9c)" height="83.3965" style="stroke:#181818;stroke-width:1;" width="10" x="971.4902" y="255.0908"/></g><g><title>JPA</title><rect fill="#FFB74D" filter="url(#fp3vjgrxh9a9c)" height="83.3965" style="stroke:#181818;stroke-width:1;" width="10" x="971.4902" y="429.8838"/></g><g><title>PostgreSQL</title><rect fill="#F8BBD9" filter="url(#fp3vjgrxh9a9c)" height="27.7988" style="stroke:#181818;stroke-width:1;" width="10" x="1169.1914" y="282.8896"/></g><g><title>PostgreSQL</title><rect fill="#F8BBD9" filter="url(#fp3vjgrxh9a9c)" height="27.7988" style="stroke:#181818;stroke-width:1;" width="10" x="1169.1914" y="457.6826"/></g><g><title>PostgreSQL</title><rect fill="#F8BBD9" filter="url(#fp3vjgrxh9a9c)" height="27.7988" style="stroke:#181818;stroke-width:1;" width="10" x="1169.1914" y="541.0791"/></g><g class="message" data-participant-1="Client" data-participant-2="React"><polygon fill="#546E7A" points="214.9219,167.6943,224.9219,171.6943,214.9219,175.6943,218.9219,171.6943" style="stroke:#546E7A;stroke-width:1;"/><line style="stroke:#546E7A;stroke-width:2;" x1="38.3398" x2="220.9219" y1="171.6943" y2="171.6943"/><text fill="#000000" font-family="Arial" font-size="12" font-weight="bold" lengthAdjust="spacing" textLength="21.3398" x="45.3398" y="167.1514">[01]</text><text fill="#000000" font-family="Arial" font-size="12" lengthAdjust="spacing" textLength="19.998" x="70.6797" y="167.1514">Clic</text><text fill="#000000" font-family="Arial" font-size="12" font-weight="bold" lengthAdjust="spacing" textLength="110.0625" x="94.0117" y="167.1514">"Ajouter au panier"</text></g><g class="message" data-participant-1="React" data-participant-2="API"><polygon fill="#546E7A" points="417.3047,195.4932,427.3047,199.4932,417.3047,203.4932,421.3047,199.4932" style="stroke:#546E7A;stroke-width:1;"/><line style="stroke:#546E7A;stroke-width:2;" x1="236.9219" x2="423.3047" y1="199.4932" y2="199.4932"/><text fill="#000000" font-family="Arial" font-size="12" font-weight="bold" lengthAdjust="spacing" textLength="21.3398" x="243.9219" y="194.9502">[02]</text><text fill="#000000" font-family="Arial" font-size="12" font-weight="bold" lengthAdjust="spacing" textLength="32.6719" x="269.2617" y="194.9502">POST</text><text fill="#000000" font-family="Arial" font-size="12" lengthAdjust="spacing" textLength="112.0371" x="305.2676" y="194.9502">/api/orders/cart/items</text></g><g class="message" data-participant-1="API" data-participant-2="Service"><polygon fill="#546E7A" points="686.4023,223.292,696.4023,227.292,686.4023,231.292,690.4023,227.292" style="stroke:#546E7A;stroke-width:1;"/><line style="stroke:#546E7A;stroke-width:2;" x1="439.3047" x2="692.4023" y1="227.292" y2="227.292"/><text fill="#000000" font-family="Arial" font-size="12" font-weight="bold" lengthAdjust="spacing" textLength="21.3398" x="446.3047" y="222.749">[03]</text><text fill="#000000" font-family="Arial" font-size="12" lengthAdjust="spacing" textLength="214.7578" x="471.6445" y="222.749">addItemToCart(email, productCode, qty)</text></g><g class="message" data-participant-1="Service" data-participant-2="Repo"><polygon fill="#546E7A" points="959.4902,251.0908,969.4902,255.0908,959.4902,259.0908,963.4902,255.0908" style="stroke:#546E7A;stroke-width:1;"/><line style="stroke:#546E7A;stroke-width:2;" x1="708.4023" x2="965.4902" y1="255.0908" y2="255.0908"/><text fill="#000000" font-family="Arial" font-size="12" font-weight="bold" lengthAdjust="spacing" textLength="21.3398" x="715.4023" y="250.5479">[04]</text><text fill="#000000" font-family="Arial" font-size="12" lengthAdjust="spacing" textLength="120.0645" x="740.7422" y="250.5479">findById(productCode)</text></g><g class="message" data-participant-1="Repo" data-participant-2="DB"><polygon fill="#546E7A" points="1157.1914,278.8896,1167.1914,282.8896,1157.1914,286.8896,1161.1914,282.8896" style="stroke:#546E7A;stroke-width:1;"/><line style="stroke:#546E7A;stroke-width:2;" x1="981.4902" x2="1163.1914" y1="282.8896" y2="282.8896"/><text fill="#000000" font-family="Arial" font-size="12" font-weight="bold" lengthAdjust="spacing" textLength="21.3398" x="988.4902" y="278.3467">[05]</text><text fill="#000000" font-family="Arial" font-size="12" font-weight="bold" lengthAdjust="spacing" textLength="47.3379" x="1013.8301" y="278.3467">SELECT</text><text fill="#000000" font-family="Arial" font-size="12" lengthAdjust="spacing" textLength="92.6895" x="1064.502" y="278.3467">* FROM products</text></g><g class="message" data-participant-1="DB" data-participant-2="Repo"><polygon fill="#546E7A" points="992.4902,306.6885,982.4902,310.6885,992.4902,314.6885,988.4902,310.6885" style="stroke:#546E7A;stroke-width:1;"/><line style="stroke:#546E7A;stroke-width:2;stroke-dasharray:2,2;" x1="986.4902" x2="1173.1914" y1="310.6885" y2="310.6885"/><text fill="#000000" font-family="Arial" font-size="12" font-weight="bold" lengthAdjust="spacing" textLength="21.3398" x="998.4902" y="306.1455">[06]</text><text fill="#000000" font-family="Arial" font-size="12" lengthAdjust="spacing" textLength="41.3555" x="1023.8301" y="306.1455">Product</text></g><g class="message" data-participant-1="Repo" data-participant-2="Service"><polygon fill="#546E7A" points="719.4023,334.4873,709.4023,338.4873,719.4023,342.4873,715.4023,338.4873" style="stroke:#546E7A;stroke-width:1;"/><line style="stroke:#546E7A;stroke-width:2;stroke-dasharray:2,2;" x1="713.4023" x2="975.4902" y1="338.4873" y2="338.4873"/><text fill="#000000" font-family="Arial" font-size="12" font-weight="bold" lengthAdjust="spacing" textLength="21.3398" x="725.4023" y="333.9443">[07]</text><text fill="#000000" font-family="Arial" font-size="12" lengthAdjust="spacing" textLength="41.3555" x="750.7422" y="333.9443">Product</text></g><g class="message" data-participant-1="Service" data-participant-2="Service"><line style="stroke:#546E7A;stroke-width:2;" x1="708.4023" x2="750.4023" y1="366.2861" y2="366.2861"/><line style="stroke:#546E7A;stroke-width:2;" x1="750.4023" x2="750.4023" y1="366.2861" y2="379.2861"/><line style="stroke:#546E7A;stroke-width:2;" x1="709.4023" x2="750.4023" y1="379.2861" y2="379.2861"/><polygon fill="#546E7A" points="719.4023,375.2861,709.4023,379.2861,719.4023,383.2861,715.4023,379.2861" style="stroke:#546E7A;stroke-width:1;"/><text fill="#000000" font-family="Arial" font-size="12" font-weight="bold" lengthAdjust="spacing" textLength="21.3398" x="715.4023" y="361.7432">[08]</text><text fill="#1565C0" font-family="Arial" font-size="12" lengthAdjust="spacing" textLength="126.7266" x="740.7422" y="361.7432">V&#233;rifier stock disponible</text></g><path d="M14,394.2861 L69.0039,394.2861 L69.0039,400.085 L59.0039,410.085 L10,410.085 L10,398.2861 A4,4 0 0 1 14,394.2861" fill="#E3F2FD" style="stroke:#1565C0;stroke-width:1.5;"/><rect fill="none" height="365.1836" rx="4" ry="4" style="stroke:#1565C0;stroke-width:1.5;" width="1209.875" x="10" y="394.2861"/><text fill="#FFFFFF" font-family="Arial" font-size="12" font-weight="bold" lengthAdjust="spacing" textLength="14.0039" x="25" y="406.542">alt</text><text fill="#000000" font-family="Arial" font-size="12" font-weight="bold" lengthAdjust="spacing" textLength="94.0078" x="84.0039" y="407.542">[Stock suffisant]</text><g class="message" data-participant-1="Service" data-participant-2="Repo"><polygon fill="#546E7A" points="959.4902,425.8838,969.4902,429.8838,959.4902,433.8838,963.4902,429.8838" style="stroke:#546E7A;stroke-width:1;"/><line style="stroke:#546E7A;stroke-width:2;" x1="708.4023" x2="965.4902" y1="429.8838" y2="429.8838"/><text fill="#000000" font-family="Arial" font-size="12" font-weight="bold" lengthAdjust="spacing" textLength="21.3398" x="715.4023" y="425.3408">[09]</text><text fill="#000000" font-family="Arial" font-size="12" lengthAdjust="spacing" textLength="218.748" x="740.7422" y="425.3408">findByClient_EmailAndStatus(PENDING)</text></g><g class="message" data-participant-1="Repo" data-participant-2="DB"><polygon fill="#546E7A" points="1157.1914,453.6826,1167.1914,457.6826,1157.1914,461.6826,1161.1914,457.6826" style="stroke:#546E7A;stroke-width:1;"/><line style="stroke:#546E7A;stroke-width:2;" x1="981.4902" x2="1163.1914" y1="457.6826" y2="457.6826"/><text fill="#000000" font-family="Arial" font-size="12" font-weight="bold" lengthAdjust="spacing" textLength="21.3398" x="988.4902" y="453.1396">[10]</text><text fill="#000000" font-family="Arial" font-size="12" font-weight="bold" lengthAdjust="spacing" textLength="47.3379" x="1013.8301" y="453.1396">SELECT</text><text fill="#000000" font-family="Arial" font-size="12" lengthAdjust="spacing" textLength="80.6777" x="1064.502" y="453.1396">* FROM orders</text></g><g class="message" data-participant-1="DB" data-participant-2="Repo"><polygon fill="#546E7A" points="992.4902,481.4814,982.4902,485.4814,992.4902,489.4814,988.4902,485.4814" style="stroke:#546E7A;stroke-width:1;"/><line style="stroke:#546E7A;stroke-width:2;stroke-dasharray:2,2;" x1="986.4902" x2="1173.1914" y1="485.4814" y2="485.4814"/><text fill="#000000" font-family="Arial" font-size="12" font-weight="bold" lengthAdjust="spacing" textLength="21.3398" x="998.4902" y="480.9385">[11]</text><text fill="#000000" font-family="Arial" font-size="12" lengthAdjust="spacing" textLength="30.6738" x="1023.8301" y="480.9385">Order</text></g><g class="message" data-participant-1="Repo" data-participant-2="Service"><polygon fill="#546E7A" points="719.4023,509.2803,709.4023,513.2803,719.4023,517.2803,715.4023,513.2803" style="stroke:#546E7A;stroke-width:1;"/><line style="stroke:#546E7A;stroke-width:2;stroke-dasharray:2,2;" x1="713.4023" x2="975.4902" y1="513.2803" y2="513.2803"/><text fill="#000000" font-family="Arial" font-size="12" font-weight="bold" lengthAdjust="spacing" textLength="21.3398" x="725.4023" y="508.7373">[12]</text><text fill="#000000" font-family="Arial" font-size="12" lengthAdjust="spacing" textLength="30.6738" x="750.7422" y="508.7373">Order</text></g><g class="message" data-participant-1="Service" data-participant-2="DB"><polygon fill="#546E7A" points="1157.1914,537.0791,1167.1914,541.0791,1157.1914,545.0791,1161.1914,541.0791" style="stroke:#546E7A;stroke-width:1;"/><line style="stroke:#546E7A;stroke-width:2;" x1="708.4023" x2="1163.1914" y1="541.0791" y2="541.0791"/><text fill="#000000" font-family="Arial" font-size="12" font-weight="bold" lengthAdjust="spacing" textLength="21.3398" x="715.4023" y="536.5361">[13]</text><text fill="#000000" font-family="Arial" font-size="12" font-weight="bold" lengthAdjust="spacing" textLength="76.002" x="740.7422" y="536.5361">INSERT INTO</text><text fill="#000000" font-family="Arial" font-size="12" lengthAdjust="spacing" textLength="59.3672" x="820.0781" y="536.5361">order_lines</text></g><g class="message" data-participant-1="DB" data-participant-2="Service"><polygon fill="#546E7A" points="719.4023,564.8779,709.4023,568.8779,719.4023,572.8779,715.4023,568.8779" style="stroke:#546E7A;stroke-width:1;"/><line style="stroke:#546E7A;stroke-width:2;stroke-dasharray:2,2;" x1="713.4023" x2="1173.1914" y1="568.8779" y2="568.8779"/><text fill="#000000" font-family="Arial" font-size="12" font-weight="bold" lengthAdjust="spacing" textLength="21.3398" x="725.4023" y="564.335">[14]</text><text fill="#000000" font-family="Arial" font-size="12" lengthAdjust="spacing" textLength="17.3379" x="750.7422" y="564.335">OK</text></g><g class="message" data-participant-1="Service" data-participant-2="API"><polygon fill="#546E7A" points="450.3047,592.6768,440.3047,596.6768,450.3047,600.6768,446.3047,596.6768" style="stroke:#546E7A;stroke-width:1;"/><line style="stroke:#546E7A;stroke-width:2;stroke-dasharray:2,2;" x1="444.3047" x2="702.4023" y1="596.6768" y2="596.6768"/><text fill="#000000" font-family="Arial" font-size="12" font-weight="bold" lengthAdjust="spacing" textLength="21.3398" x="456.3047" y="592.1338">[15]</text><text fill="#2E7D32" font-family="Arial" font-size="12" lengthAdjust="spacing" textLength="102.0352" x="481.6445" y="592.1338">CartResponseDTO</text></g><g class="message" data-participant-1="API" data-participant-2="React"><polygon fill="#546E7A" points="247.9219,620.4756,237.9219,624.4756,247.9219,628.4756,243.9219,624.4756" style="stroke:#546E7A;stroke-width:1;"/><line style="stroke:#546E7A;stroke-width:2;stroke-dasharray:2,2;" x1="241.9219" x2="433.3047" y1="624.4756" y2="624.4756"/><text fill="#000000" font-family="Arial" font-size="12" font-weight="bold" lengthAdjust="spacing" textLength="21.3398" x="253.9219" y="619.9326">[16]</text><text fill="#2E7D32" font-family="Arial" font-size="12" font-weight="bold" lengthAdjust="spacing" textLength="41.3555" x="279.2617" y="619.9326">200 OK</text><text fill="#000000" font-family="Arial" font-size="12" lengthAdjust="spacing" textLength="68.3496" x="323.9512" y="619.9326">+ Cart JSON</text></g><g class="message" data-participant-1="React" data-participant-2="Client"><polygon fill="#546E7A" points="49.3398,648.2744,39.3398,652.2744,49.3398,656.2744,45.3398,652.2744" style="stroke:#546E7A;stroke-width:1;"/><line style="stroke:#546E7A;stroke-width:2;stroke-dasharray:2,2;" x1="43.3398" x2="230.9219" y1="652.2744" y2="652.2744"/><text fill="#000000" font-family="Arial" font-size="12" font-weight="bold" lengthAdjust="spacing" textLength="21.3398" x="55.3398" y="647.7314">[17]</text><text fill="#2E7D32" font-family="Arial" font-size="12" lengthAdjust="spacing" textLength="139.2422" x="80.6797" y="647.7314">Badge panier mis &#224; jour &#10003;</text></g><line style="stroke:#1565C0;stroke-width:1;stroke-dasharray:2,2;" x1="10" x2="1219.875" y1="661.2744" y2="661.2744"/><text fill="#000000" font-family="Arial" font-size="12" font-weight="bold" lengthAdjust="spacing" textLength="104.6719" x="15" y="672.5303">[Stock insuffisant]</text><g class="message" data-participant-1="Service" data-participant-2="API"><polygon fill="#546E7A" points="445.3047,691.8721,435.3047,695.8721,445.3047,699.8721,441.3047,695.8721" style="stroke:#546E7A;stroke-width:1;"/><line style="stroke:#546E7A;stroke-width:2;stroke-dasharray:2,2;" x1="439.3047" x2="702.4023" y1="695.8721" y2="695.8721"/><text fill="#000000" font-family="Arial" font-size="12" font-weight="bold" lengthAdjust="spacing" textLength="21.3398" x="451.3047" y="691.3291">[18]</text><text fill="#C62828" font-family="Arial" font-size="12" lengthAdjust="spacing" textLength="172.752" x="476.6445" y="691.3291">throw InsufficientStockException</text></g><g class="message" data-participant-1="API" data-participant-2="React"><polygon fill="#546E7A" points="242.9219,719.6709,232.9219,723.6709,242.9219,727.6709,238.9219,723.6709" style="stroke:#546E7A;stroke-width:1;"/><line style="stroke:#546E7A;stroke-width:2;stroke-dasharray:2,2;" x1="236.9219" x2="433.3047" y1="723.6709" y2="723.6709"/><text fill="#000000" font-family="Arial" font-size="12" font-weight="bold" lengthAdjust="spacing" textLength="21.3398" x="248.9219" y="719.1279">[19]</text><text fill="#C62828" font-family="Arial" font-size="12" font-weight="bold" lengthAdjust="spacing" textLength="96.7031" x="274.2617" y="719.1279">400 Bad Request</text></g><g class="message" data-participant-1="React" data-participant-2="Client"><polygon fill="#546E7A" points="49.3398,747.4697,39.3398,751.4697,49.3398,755.4697,45.3398,751.4697" style="stroke:#546E7A;stroke-width:1;"/><line style="stroke:#546E7A;stroke-width:2;stroke-dasharray:2,2;" x1="43.3398" x2="230.9219" y1="751.4697" y2="751.4697"/><text fill="#000000" font-family="Arial" font-size="12" font-weight="bold" lengthAdjust="spacing" textLength="21.3398" x="55.3398" y="746.9268">[20]</text><text fill="#C62828" font-family="Arial" font-size="12" lengthAdjust="spacing" textLength="125.5605" x="80.6797" y="746.9268">Message erreur stock &#10007;</text></g><!--SRC=[fLRDRjj64BxpAJRAeJ6RG1GjMR9W2E3FqbNYIAeez58NnefSsrjJIsMvz4-BFaKFlUJGQvx3Rv8dwIp_H59MMxGMO8WxttmpyytCKgz2UiquHPQpcY-lx7Fq6e-y0JxLNXK6RpcVhV3CpMt7dkcvbSssd0-boVEyOsnK9jTQMRRbuzpcu3vsD2svOtnB1DcWDGdkRaISyj29erW0n5AV6W9uI1f9B-PoHZQGe60aUjdkiryewfarOt9BmlY1yHiaHKfhXYAau5IWKJqX-2zPmBQ4I_IhXk3FZaL8HP7UyR0_x7kryzKj2-uuJH9aPgTP7l8fecWTHw7sMvsR118u2jPMuQNk-o5DF7IFT-J5QSyUODDeyeT4aZL9w84GjLRiHt7CtcXWjwECHWQ6SXjH4leffJmeerX2n0y5VD0_mKDhTzmMvu9TqmkOYaRaKyFgMxXfRqy5Th3dzOgi7nlkmz6fSUfKfhrv6gXFPZw7yst3jpSu6JX6pRWNDv_p2l0T9U2z4-ZXbacQcLrspy1qABNIt0xWUEx8TPe2yrWUQg7QBXSFzzldsOvXkktsUOEXrnigTiaaZEHP0XioDet9sNhYCd83qM2ZGehyvozvKy-wwybPLy4cbpo7z_eJw-SubIZy9kLeA-8mPHAH55Q5CoeAjARbqzrn8aQvx22IeFnhTPEiuqVKyGIaHtdOQOXRtxhEaWBL9Py2JboJW6PSsI5wRTikzcmD262_7dDA9P8wyBT2RReTnn2-l8VssR6_kkGEP27YAA8YOxSMK-M13TlSzt3WuPBxLDop8fdYkt9ndD4BGTulh4k-fDiuOI3AKr71DbOUzh3lLWLKAzjPn8cy4TJ__Y93kpPWHr3kAIYRofYdcpNSLHtet8-6yLD7qmfrtqqARSPAxm3fUYTh5u2h7dLqNRM7tHEOhAQIMlu8B4g3CRWlvlvArr6NR5at6x6a6q1jNPZqJRAZgKkcgGUWA7KP8nA6Ky2lOYNU6xeXB7gRpqu0mndIj-YJV3hQiRKLrSg3h3mGRepWTHBQJzFmJOtcg5vMJLujUm9Va57LvECBxAYgTFKU-rXcKYkdfZTyVRSBkyYXMaXhs390e-ONa0hLg6M7FWlKZewBEsZom_CNmQwXLoYHSN27GfPiOyxM4QnaXbGR5bNBXFmCbQJNroo1aSj6y91c-QHSOTK5YuU-939DtYpWZJsTdHzbhWTaLAP_a38VaIP9JSpiyci8EbSEsNbBqbsmXb0ludDXMqKN6KvdFbwkq7IscaEQMNvN4RnL_bMIjRWV3YLPXQosfcnc_gwUgA5VKjN0XBghUTN15b_1avDcArHRvXQbhfk60JdfUic6laKg3dhlpsTjPY0hzSos6tYBwsAFs2RX3Itk2RHX2Nh-4y7z8T3NpxyVIZnZrJGQ9Td6OXlZOY0PFp2IUr8v9-R874taBVnEGDFSBL0fPaJuCQ1RoMB-lxGhOkXw7xI3GW40hxb4xaJyBy8Lh1_XTmq1wQWGD2tNzkldF_vUDBZujRy0]--></g></svg>